<svg width="109" height="101" viewBox="0 0 109 101" fill="none" xmlns="http://www.w3.org/2000/svg">
<path d="M12.739 32.017C-4.11444 45.635 -3.88162 67.0491 13.2337 79.4765C21.2297 85.2671 33.006 90.3012 49.7666 95.0683C59.5875 97.8153 77.011 101.162 78.2207 100.518C79.2199 99.9862 78.3132 97.7687 72.6238 87.0455C67.2462 76.9099 66.9079 76.3993 65.5968 76.3436C64.5481 76.2739 63.9215 75.7284 62.9862 73.9657C62.025 72.154 61.8977 71.4055 62.5313 70.5658C63.2708 69.5443 63.0376 68.9777 58.959 61.2903C55.9194 55.5614 54.701 52.7564 54.9139 52.1407C55.1002 51.602 56.6533 50.4613 58.3363 49.5654C61.0186 48.1376 61.7536 47.9975 63.351 48.4659C65.1316 49.0251 65.5257 48.8781 70.7851 46.0785L76.3074 43.1389L77.1907 44.8037C77.8661 46.0768 77.837 46.6574 77.0994 47.3012C76.5988 47.7561 76.2794 48.6796 76.4074 49.3022C76.5867 50.1486 76.1641 50.7504 74.533 51.7442C72.7176 52.8989 72.5326 53.1858 73.1041 54.263C73.7276 55.4382 73.9639 55.3751 77.302 53.9122L80.8505 52.3373L81.9695 54.065L83.0885 55.7927L77.2234 59.1031C71.6212 62.2736 71.3842 62.4625 71.772 63.5748C72.0305 64.3163 72.6578 64.7359 73.5234 64.7147C74.6513 64.6794 75.1474 65.106 76.2905 67.2605C77.4595 69.4639 77.5356 69.9885 76.7714 70.7093C75.902 71.486 76.0572 71.9057 81.7986 82.7269C85.0459 88.8474 88.088 94.0726 88.5588 94.3243C89.8407 94.9606 91.3234 92.1619 96.8479 78.4208C106.169 55.4373 110.205 35.2044 107.935 22.6614C106.966 17.149 102.833 9.86734 98.8362 6.65723C92.2014 1.398 84.1338 -0.586855 74.8691 0.765596C71.2997 1.28416 69.8284 1.81619 65.1476 4.30785C60.2038 6.93948 59.2824 7.61829 56.1705 11.033C52.3723 15.3154 49.8554 20.36 48.7515 26.0338C48.3744 27.9928 47.8681 29.5809 47.5798 29.546C47.37 29.5321 46.1661 29.0427 45.0154 28.3993C38.2658 25.085 29.5867 24.7443 20.9183 27.4748C17.2146 28.63 16.4257 29.0499 12.739 32.017Z" fill="#FC003B" fill-opacity="0.23"/>
</svg>
