<svg width="72" height="67" viewBox="0 0 72 67" fill="none" xmlns="http://www.w3.org/2000/svg">
<path d="M25.706 1.92419C12.1512 -2.01787 0.811568 6.09648 0.566472 19.8964C0.460102 26.3377 2.16792 34.5208 5.87799 45.2727C8.07662 51.5555 12.7919 62.1323 13.5868 62.5397C14.2435 62.8762 15.0884 61.5634 18.6874 54.5166C22.0892 47.8559 22.2354 47.4842 21.776 46.7616C21.4219 46.1741 21.4791 45.6351 22.0707 44.4767C22.6788 43.2861 23.0307 42.9387 23.7152 42.9646C24.5362 42.9794 24.7515 42.6432 27.3316 37.5913C29.2544 33.8266 30.2965 32.1277 30.7045 32.0119C31.0614 31.9107 32.2496 32.3166 33.3556 32.8834C35.1183 33.7867 35.4673 34.1279 35.8134 35.1579C36.1794 36.3198 36.4049 36.476 39.8611 38.2472L43.4902 40.1069L42.9314 41.201C42.5041 42.0376 42.1834 42.2386 41.5647 42.0839C41.1352 41.9856 40.5232 42.1592 40.2388 42.46C39.854 42.8718 39.3752 42.8701 38.2364 42.3676C36.9428 41.8265 36.7207 41.8345 36.3592 42.5424C35.9648 43.3147 36.0866 43.4177 38.1127 44.659L40.2771 45.9712L39.7727 47.2149L39.2684 48.4586L35.3135 46.5537C31.5315 44.7373 31.3422 44.6809 30.8934 45.3035C30.5942 45.7186 30.6044 46.211 30.9387 46.6665C31.3783 47.2572 31.3358 47.682 30.6127 49.0978C29.8732 50.5457 29.6216 50.7822 28.9519 50.642C28.213 50.4663 28.047 50.706 24.4151 57.8172C22.3609 61.8394 20.7078 65.4176 20.7492 65.7636C20.8879 66.6873 22.9346 66.4369 32.328 64.2677C48.0699 60.6829 60.372 55.2948 66.2176 49.3992C68.7976 46.8238 71.1408 41.8942 71.3626 38.5569C71.6933 33.0425 69.7422 27.9827 65.5637 23.5272C63.9552 21.8097 63.1223 21.2205 60.0463 19.6442C56.7974 17.9792 56.0914 17.7392 53.1082 17.3472C49.406 16.9115 45.7751 17.4462 42.3356 18.9721C41.1497 19.5011 40.1133 19.8226 40.0244 19.6552C39.9536 19.5377 39.7655 18.7106 39.6794 17.8545C38.9295 13.0043 35.873 8.23056 31.1816 4.60844C29.1833 3.05657 28.6648 2.79089 25.706 1.92419Z" fill="#FC003B" fill-opacity="0.23"/>
</svg>
