<svg width="104" height="101" viewBox="0 0 104 101" fill="none" xmlns="http://www.w3.org/2000/svg">
<path d="M8.96739 45.232C-4.87672 61.8588 -0.454697 82.7777 18.7469 91.598C27.7145 95.7037 40.2376 98.3298 57.5915 99.72C67.7509 100.489 85.4759 100.359 86.5349 99.4925C87.4097 98.7764 86.0871 96.7828 78.4132 87.3971C71.1597 78.5257 70.7282 78.0919 69.433 78.2937C68.3919 78.4305 67.6711 78.019 66.4097 76.4761C65.1131 74.8904 64.8418 74.1825 65.2981 73.2366C65.8225 72.0919 65.4831 71.5828 59.9817 64.8542C55.8819 59.84 54.1389 57.3321 54.2269 56.6877C54.3039 56.1239 55.602 54.7035 57.0754 53.4974C59.4235 51.5752 60.1162 51.2943 61.7729 51.4405C63.6268 51.6399 63.9842 51.4189 68.5884 47.6499L73.4229 43.6924L74.6142 45.1496C75.5253 46.2639 75.6105 46.838 75.0139 47.6125C74.6126 48.1557 74.4806 49.1222 74.7279 49.7067C75.0694 50.5003 74.7731 51.1721 73.3699 52.4639C71.8175 53.9493 71.6924 54.2663 72.4633 55.2092C73.3042 56.2377 73.5235 56.1298 76.5072 54.045L79.6752 51.8094L81.1098 53.2821L82.5445 54.7547L77.4468 59.1423C72.5794 63.3414 72.3842 63.5727 72.9819 64.5858C73.3804 65.2612 74.0772 65.5493 74.921 65.3593C76.0191 65.1043 76.5887 65.425 78.1305 67.3107C79.7073 69.2393 79.8846 69.738 79.2771 70.5931C78.5775 71.5235 78.8117 71.904 86.5558 81.3754C90.9359 86.7326 94.9395 91.2532 95.45 91.4076C96.8305 91.78 97.735 88.7502 100.456 74.2176C105.087 49.8944 105.078 29.2974 100.397 17.4618C98.3685 12.2545 92.8931 5.93388 88.3492 3.5725C80.8191 -0.279145 72.5266 -0.645063 63.715 2.49025C60.3197 3.69574 58.9824 4.50426 54.8847 7.85869C50.5567 11.4016 49.787 12.2463 47.4071 16.1977C44.5247 21.1326 43.0469 26.5634 43.0766 32.3339C43.0908 34.3254 42.9058 35.9792 42.6166 36.0014C42.4083 36.0287 41.133 35.785 39.8797 35.3801C32.6181 33.4549 24.0485 34.8182 16.0909 39.186C12.6887 41.0411 11.998 41.6064 8.96739 45.232Z" fill="#FC003B" fill-opacity="0.23"/>
</svg>
