<svg width="53" height="53" viewBox="0 0 53 53" fill="none" xmlns="http://www.w3.org/2000/svg">
<path fill-rule="evenodd" clip-rule="evenodd" d="M14.3542 35.3333H35.3334C39.4974 35.3333 41.5795 35.3333 42.8731 34.0397C44.1667 32.7461 44.1667 30.6641 44.1667 26.5V15.4583C44.1667 11.2943 44.1667 9.21222 42.8731 7.91861C41.5795 6.625 39.4974 6.625 35.3334 6.625H17.6667C13.5026 6.625 11.4206 6.625 10.127 7.91861C8.83337 9.21222 8.83337 11.2943 8.83337 15.4583V40.8542C8.83337 37.8051 11.3051 35.3333 14.3542 35.3333ZM36.2482 20.7897C37.973 19.0649 37.973 16.2684 36.2482 14.5436C34.5234 12.8188 31.7269 12.8188 30.0021 14.5436L24.2918 20.2539L22.9982 18.9603C21.2734 17.2355 18.4769 17.2355 16.7521 18.9603C15.0273 20.6851 15.0273 23.4816 16.7521 25.2064L19.6072 28.0615C22.1944 30.6488 26.3891 30.6488 28.9764 28.0615L36.2482 20.7897Z" fill="#909090"/>
<path d="M42.8731 34.0397L41.3116 32.4782V32.4782L42.8731 34.0397ZM42.8731 7.91861L41.3116 9.48014V9.48014L42.8731 7.91861ZM36.2482 20.7897L37.8097 22.3513L36.2482 20.7897ZM30.0021 14.5436L31.5636 16.1051L30.0021 14.5436ZM24.2918 20.2539L22.7303 21.8154L24.2918 23.3769L25.8533 21.8154L24.2918 20.2539ZM22.9982 18.9603L21.4366 20.5218H21.4366L22.9982 18.9603ZM16.7521 25.2064L18.3136 23.6449L16.7521 25.2064ZM19.6072 28.0615L21.1687 26.5H21.1687L19.6072 28.0615ZM28.9764 28.0615L27.4148 26.5L28.9764 28.0615ZM35.3334 33.125H14.3542V37.5417H35.3334V33.125ZM41.3116 32.4782C41.1435 32.6463 40.8432 32.8542 39.8854 32.983C38.864 33.1203 37.4778 33.125 35.3334 33.125V37.5417C37.353 37.5417 39.0898 37.5464 40.4739 37.3603C41.9215 37.1656 43.3091 36.7268 44.4346 35.6012L41.3116 32.4782ZM41.9584 26.5C41.9584 28.6445 41.9537 30.0307 41.8164 31.052C41.6876 32.0099 41.4797 32.3101 41.3116 32.4782L44.4346 35.6012C45.5601 34.4757 45.999 33.0881 46.1936 31.6405C46.3797 30.2565 46.375 28.5196 46.375 26.5H41.9584ZM41.9584 15.4583V26.5H46.375V15.4583H41.9584ZM41.3116 9.48014C41.4797 9.64825 41.6876 9.94846 41.8164 10.9063C41.9537 11.9277 41.9584 13.3139 41.9584 15.4583H46.375C46.375 13.4387 46.3797 11.7019 46.1936 10.3178C45.999 8.87019 45.5601 7.48259 44.4346 6.35708L41.3116 9.48014ZM35.3334 8.83333C37.4778 8.83333 38.864 8.83802 39.8854 8.97534C40.8432 9.10412 41.1435 9.31203 41.3116 9.48014L44.4346 6.35709C43.3091 5.23158 41.9215 4.79269 40.4739 4.59806C39.0898 4.41198 37.353 4.41667 35.3334 4.41667V8.83333ZM17.6667 8.83333H35.3334V4.41667H17.6667V8.83333ZM11.6885 9.48014C11.8566 9.31203 12.1568 9.10412 13.1147 8.97534C14.136 8.83802 15.5222 8.83333 17.6667 8.83333V4.41667C15.6471 4.41667 13.9102 4.41198 12.5262 4.59806C11.0786 4.79269 9.69096 5.23158 8.56546 6.35708L11.6885 9.48014ZM11.0417 15.4583C11.0417 13.3139 11.0464 11.9277 11.1837 10.9063C11.3125 9.94846 11.5204 9.64825 11.6885 9.48014L8.56546 6.35708C7.43995 7.48259 7.00106 8.8702 6.80643 10.3178C6.62035 11.7019 6.62504 13.4387 6.62504 15.4583H11.0417ZM11.0417 40.8542V15.4583H6.62504V40.8542H11.0417ZM14.3542 33.125C10.0855 33.125 6.62504 36.5855 6.62504 40.8542H11.0417C11.0417 39.0247 12.5248 37.5417 14.3542 37.5417V33.125ZM34.6866 16.1051C35.5491 16.9675 35.5491 18.3658 34.6866 19.2282L37.8097 22.3513C40.3969 19.764 40.3969 15.5693 37.8097 12.9821L34.6866 16.1051ZM31.5636 16.1051C32.426 15.2427 33.8242 15.2427 34.6866 16.1051L37.8097 12.9821C35.2225 10.3949 31.0278 10.3949 28.4405 12.9821L31.5636 16.1051ZM25.8533 21.8154L31.5636 16.1051L28.4405 12.9821L22.7303 18.6924L25.8533 21.8154ZM21.4366 20.5218L22.7303 21.8154L25.8533 18.6924L24.5597 17.3988L21.4366 20.5218ZM18.3136 20.5218C19.176 19.6594 20.5742 19.6594 21.4366 20.5218L24.5597 17.3988C21.9725 14.8115 17.7778 14.8115 15.1905 17.3988L18.3136 20.5218ZM18.3136 23.6449C17.4512 22.7825 17.4512 21.3842 18.3136 20.5218L15.1905 17.3988C12.6033 19.986 12.6033 24.1807 15.1905 26.7679L18.3136 23.6449ZM21.1687 26.5L18.3136 23.6449L15.1905 26.7679L18.0457 29.6231L21.1687 26.5ZM27.4148 26.5C25.69 28.2248 22.8935 28.2248 21.1687 26.5L18.0457 29.6231C21.4953 33.0727 27.0883 33.0727 30.5379 29.6231L27.4148 26.5ZM34.6866 19.2282L27.4148 26.5L30.5379 29.6231L37.8097 22.3513L34.6866 19.2282ZM24.2917 44.1667H14.3542V48.5833H24.2917V44.1667ZM6.62504 40.8542C6.62504 45.1229 10.0855 48.5833 14.3542 48.5833V44.1667C12.5248 44.1667 11.0417 42.6836 11.0417 40.8542H6.62504Z" fill="#909090"/>
<path d="M44.1667 46.375H22.0834" stroke="#909090" stroke-width="4.41667" stroke-linecap="round"/>
</svg>
