<svg width="78" height="38" viewBox="0 0 78 38" fill="none" xmlns="http://www.w3.org/2000/svg">
<g filter="url(#filter0_d_234_729)">
<path d="M58.2208 11.9187C61.2833 13.6456 64.1708 15.8126 66.8542 18.386L63.7333 22.009C62.0417 20.4176 60.2042 18.9955 58.25 17.7088V11.9187H58.2208ZM19.75 11.9187V17.6749C17.8542 18.9278 16.0167 20.3499 14.2958 21.9752L11.175 18.3521C13.8292 15.8126 16.7167 13.6795 19.75 11.9187ZM39 0C25.7583 0 13.7417 6.02709 4.84583 15.8126C4.32083 16.4221 4 17.2686 4 18.2167C4 19.1648 4.32083 20.0113 4.84583 20.5869L12.0792 28.9842C12.6042 29.5937 13.3333 29.9661 14.15 29.9661C14.9375 29.9661 15.6667 29.6275 16.1917 29.0181C18.4958 26.5463 21.0917 24.4131 23.95 22.754C24.9125 22.2122 25.5833 21.0271 25.5833 19.7065V9.20993C29.8125 7.61851 34.3333 6.77201 39 6.77201C43.6667 6.77201 48.1875 7.61851 52.3875 9.24379V19.7404C52.3875 21.0948 53.0583 22.246 54.0208 22.7878C56.8792 24.447 59.5042 26.5463 61.8083 29.0519C62.3333 29.6275 63.0625 30 63.85 30C64.6667 30 65.3958 29.6275 65.9208 29.0181L73.1542 20.6208C73.6792 20.0113 74 19.1648 74 18.2167C74 17.2686 73.6792 16.4221 73.1542 15.8126C64.2583 6.02709 52.2417 0 39 0Z" fill="white"/>
</g>
<defs>
<filter id="filter0_d_234_729" x="0" y="0" width="78" height="38" filterUnits="userSpaceOnUse" color-interpolation-filters="sRGB">
<feFlood flood-opacity="0" result="BackgroundImageFix"/>
<feColorMatrix in="SourceAlpha" type="matrix" values="0 0 0 0 0 0 0 0 0 0 0 0 0 0 0 0 0 0 127 0" result="hardAlpha"/>
<feOffset dy="4"/>
<feGaussianBlur stdDeviation="2"/>
<feComposite in2="hardAlpha" operator="out"/>
<feColorMatrix type="matrix" values="0 0 0 0 0 0 0 0 0 0 0 0 0 0 0 0 0 0 0.25 0"/>
<feBlend mode="normal" in2="BackgroundImageFix" result="effect1_dropShadow_234_729"/>
<feBlend mode="normal" in="SourceGraphic" in2="effect1_dropShadow_234_729" result="shape"/>
</filter>
</defs>
</svg>
