<svg width="25" height="23" viewBox="0 0 25 23" fill="none" xmlns="http://www.w3.org/2000/svg">
<path d="M22.5 2.55556H18.5375L16.25 0H8.75L6.4625 2.55556H2.5C1.125 2.55556 0 3.70556 0 5.11111V20.4444C0 21.85 1.125 23 2.5 23H22.5C23.875 23 25 21.85 25 20.4444V5.11111C25 3.70556 23.875 2.55556 22.5 2.55556ZM22.5 20.4444H2.5V5.11111H6.4625H7.5625L8.3 4.28056L9.85 2.55556H15.15L16.7 4.28056L17.4375 5.11111H18.5375H22.5V20.4444Z" fill="#323232"/>
<path d="M12.5002 17.8887C9.73774 17.8887 7.50024 15.6015 7.50024 12.7776H10.0002L6.87524 9.58313L3.75024 12.7776H6.25024C6.25024 16.3042 9.05024 19.1665 12.5002 19.1665C13.5752 19.1665 14.5627 18.8598 15.4502 18.3742L14.5252 17.4287C13.9127 17.7226 13.2252 17.8887 12.5002 17.8887Z" fill="#323232"/>
<path d="M12.5005 6.38867C11.4255 6.38867 10.438 6.69534 9.55054 7.18089L10.4755 8.11367C11.088 7.83256 11.7755 7.66645 12.5005 7.66645C15.263 7.66645 17.5005 9.95367 17.5005 12.7776H15.0005L18.1255 15.972L21.2505 12.7776H18.7505C18.7505 9.25089 15.9505 6.38867 12.5005 6.38867Z" fill="#323232"/>
</svg>
