<svg width="112" height="91" viewBox="0 0 112 91" fill="none" xmlns="http://www.w3.org/2000/svg">
<path d="M102.261 21.6667H86.8243L77.913 13H48.6956V21.6667H73.6278L82.5391 30.3333H102.261V82.3333H24.3478V43.3333H14.6087V82.3333C14.6087 87.1 18.9913 91 24.3478 91H102.261C107.617 91 112 87.1 112 82.3333V30.3333C112 25.5667 107.617 21.6667 102.261 21.6667ZM38.9565 56.3333C38.9565 68.2933 49.8643 78 63.3043 78C76.7443 78 87.6522 68.2933 87.6522 56.3333C87.6522 44.3733 76.7443 34.6667 63.3043 34.6667C49.8643 34.6667 38.9565 44.3733 38.9565 56.3333ZM63.3043 43.3333C71.3391 43.3333 77.913 49.1833 77.913 56.3333C77.913 63.4833 71.3391 69.3333 63.3043 69.3333C55.2696 69.3333 48.6956 63.4833 48.6956 56.3333C48.6956 49.1833 55.2696 43.3333 63.3043 43.3333ZM24.3478 21.6667H38.9565V13H24.3478V0H14.6087V13H0V21.6667H14.6087V34.6667H24.3478V21.6667Z" fill="#FD003B"/>
</svg>
