<svg width="51" height="39" viewBox="0 0 51 39" fill="none" xmlns="http://www.w3.org/2000/svg">
<rect x="0.950706" y="0.950706" width="49.0986" height="37.0986" rx="14.2606" fill="url(#paint0_linear_508_854)" stroke="#666666" stroke-width="1.90141"/>
<path fill-rule="evenodd" clip-rule="evenodd" d="M16.89 25.2772C16.9239 30.1207 21.4632 35.8948 24.5897 37.761C24.6501 37.7927 24.7031 37.8367 24.7454 37.8902C24.7877 37.9437 24.8183 38.0056 24.8352 38.0717C24.8522 38.1379 24.8551 38.2069 24.8437 38.2742C24.8324 38.3416 24.807 38.4058 24.7694 38.4627C24.7236 38.5394 24.6589 38.603 24.5815 38.6474C24.5041 38.6918 24.4167 38.7154 24.3276 38.7161C24.2367 38.7164 24.1475 38.6911 24.0703 38.643C20.735 36.6696 16.1714 30.9003 15.8802 25.7353H0.509757C0.38252 25.7228 0.264454 25.6633 0.178554 25.5683C0.0926535 25.4732 0.0450698 25.3495 0.0450698 25.2212C0.0450698 25.0929 0.0926535 24.9692 0.178554 24.8741C0.264454 24.7791 0.38252 24.7196 0.509757 24.7071H15.9773C16.946 21.2993 16.946 17.6874 15.9773 14.2796H0.509757C0.374561 14.2796 0.244903 14.2257 0.149304 14.1297C0.0537064 14.0338 0 13.9037 0 13.768C0 13.6323 0.0537064 13.5021 0.149304 13.4062C0.244903 13.3102 0.374561 13.2563 0.509757 13.2563H15.8802C16.1714 8.0718 20.7544 2.32203 24.0703 0.348599C24.1894 0.27946 24.3309 0.260639 24.4639 0.296278C24.5968 0.331916 24.7102 0.419094 24.7791 0.538633C24.848 0.658172 24.8667 0.800281 24.8312 0.933696C24.7957 1.06711 24.7088 1.18091 24.5897 1.25004C21.4632 3.09192 16.9239 8.87092 16.89 13.7192C18.0019 17.4911 18.0019 21.5054 16.89 25.2772ZM32.6682 8.56225C30.9254 5.06867 28.1874 2.32545 26.3863 1.2535C26.2672 1.18437 26.1804 1.07058 26.1449 0.937168C26.1093 0.803758 26.1281 0.661655 26.197 0.54212C26.2659 0.422585 26.3792 0.335411 26.5122 0.299774C26.6451 0.264137 26.7867 0.282956 26.9058 0.352093C29.2651 1.74075 32.008 4.92737 33.5809 8.075C33.6188 8.13528 33.643 8.20316 33.6519 8.27386C33.6608 8.34455 33.6541 8.41635 33.6324 8.48418C33.6106 8.55201 33.5743 8.61423 33.526 8.66644C33.4777 8.71866 33.4185 8.7596 33.3527 8.78638C33.2826 8.82437 33.2043 8.84446 33.1246 8.84486C33.0299 8.84495 32.937 8.81856 32.8564 8.76864C32.7758 8.71873 32.7106 8.64726 32.6682 8.56225ZM50.4886 24.708H34.9925C34.0238 21.3003 34.0238 17.6886 34.9925 14.2809H50.4886C50.6237 14.2809 50.7534 14.227 50.849 14.131C50.9446 14.0351 50.9983 13.905 50.9983 13.7693C50.9983 13.6336 50.9446 13.5035 50.849 13.4075C50.7534 13.3116 50.6237 13.2577 50.4886 13.2577H34.5993C34.4888 13.2589 34.3817 13.2962 34.2941 13.3639C34.2066 13.4315 34.1433 13.5259 34.1138 13.6328C32.9851 17.4319 32.9851 21.479 34.1138 25.2781C34.0798 30.1214 29.5407 35.8953 26.4143 37.7614C26.3524 37.7913 26.2975 37.834 26.2532 37.8867C26.2089 37.9394 26.1763 38.001 26.1575 38.0673C26.1387 38.1336 26.1341 38.2032 26.1441 38.2714C26.154 38.3397 26.1783 38.405 26.2153 38.4631C26.2611 38.5398 26.3258 38.6034 26.4032 38.6478C26.4805 38.6921 26.568 38.7158 26.6571 38.7165C26.748 38.7167 26.8371 38.6914 26.9144 38.6434C30.2301 36.6944 34.8129 30.901 35.1042 25.7361H50.4886C50.6158 25.7237 50.7338 25.6641 50.8197 25.5691C50.9056 25.4741 50.9532 25.3504 50.9532 25.2221C50.9532 25.0938 50.9056 24.9701 50.8197 24.875C50.7338 24.78 50.6158 24.7205 50.4886 24.708ZM24.98 3.14116C25.1301 3.04051 25.3066 2.98679 25.4871 2.98679C25.7291 2.98679 25.9613 3.0833 26.1324 3.25508C26.3036 3.42687 26.3997 3.65987 26.3997 3.90282C26.3997 4.08399 26.3462 4.26109 26.2459 4.41173C26.1456 4.56237 26.0031 4.67978 25.8363 4.74912C25.6696 4.81845 25.4861 4.83659 25.309 4.80124C25.132 4.7659 24.9693 4.67866 24.8417 4.55055C24.7141 4.42244 24.6271 4.25922 24.5919 4.08152C24.5567 3.90383 24.5748 3.71965 24.6439 3.55227C24.7129 3.38488 24.8299 3.24182 24.98 3.14116Z" fill="#666666"/>
<defs>
<linearGradient id="paint0_linear_508_854" x1="-4.85714" y1="-7.85e-07" x2="55.2585" y2="38.7987" gradientUnits="userSpaceOnUse">
<stop stop-color="#DDD9D6"/>
<stop offset="0.212761" stop-color="#8A868C"/>
<stop offset="0.548384" stop-color="#F2F3F3" stop-opacity="0.8"/>
<stop offset="0.914316" stop-color="#807C80"/>
<stop offset="1" stop-color="#A6A8AB"/>
</linearGradient>
</defs>
</svg>
