<svg width="26" height="23" viewBox="0 0 26 23" fill="none" xmlns="http://www.w3.org/2000/svg">
<path d="M0.5 2.5C0.5 1.11929 1.61929 0 3 0H23C24.3807 0 25.5 1.11929 25.5 2.5V16.25C25.5 17.6307 24.3807 18.75 23 18.75H17.2678L13.8839 22.1339C13.3957 22.622 12.6043 22.622 12.1161 22.1339L8.73223 18.75H3C1.61929 18.75 0.5 17.6307 0.5 16.25V2.5ZM23 2.5H3V16.25H9.25C9.58152 16.25 9.89946 16.3817 10.1339 16.6161L13 19.4822L15.8661 16.6161C16.1005 16.3817 16.4185 16.25 16.75 16.25H23V2.5ZM5.5 6.875C5.5 6.18464 6.05964 5.625 6.75 5.625H19.25C19.9404 5.625 20.5 6.18464 20.5 6.875C20.5 7.56536 19.9404 8.125 19.25 8.125H6.75C6.05964 8.125 5.5 7.56536 5.5 6.875ZM5.5 11.875C5.5 11.1846 6.05964 10.625 6.75 10.625H14.25C14.9404 10.625 15.5 11.1846 15.5 11.875C15.5 12.5654 14.9404 13.125 14.25 13.125H6.75C6.05964 13.125 5.5 12.5654 5.5 11.875Z" fill="#31302E"/>
</svg>
