<svg width="45" height="45" viewBox="0 0 45 45" fill="none" xmlns="http://www.w3.org/2000/svg">
<path d="M0.941442 0.941442C2.1967 -0.313814 4.23187 -0.313814 5.48713 0.941442L22.5 17.9543L39.5129 0.941442C40.7681 -0.313814 42.8033 -0.313814 44.0586 0.941442C45.3138 2.1967 45.3138 4.23187 44.0586 5.48713L27.0457 22.5L44.0586 39.5129C45.3138 40.7681 45.3138 42.8033 44.0586 44.0586C42.8033 45.3138 40.7681 45.3138 39.5129 44.0586L22.5 27.0457L5.48713 44.0586C4.23187 45.3138 2.1967 45.3138 0.941442 44.0586C-0.313814 42.8033 -0.313814 40.7681 0.941442 39.5129L17.9543 22.5L0.941442 5.48713C-0.313814 4.23187 -0.313814 2.1967 0.941442 0.941442Z" fill="white"/>
</svg>
