<svg width="7" height="27" viewBox="0 0 7 27" fill="none" xmlns="http://www.w3.org/2000/svg">
<path d="M-5.90104e-07 13.5C-6.7158e-07 15.364 1.51104 16.875 3.375 16.875C5.23896 16.875 6.75 15.364 6.75 13.5C6.75 11.636 5.23896 10.125 3.375 10.125C1.51104 10.125 -5.08627e-07 11.636 -5.90104e-07 13.5Z" fill="white"/>
<path d="M-1.47526e-07 3.375C-2.29002e-07 5.23896 1.51104 6.75 3.375 6.75C5.23896 6.75 6.75 5.23896 6.75 3.375C6.75 1.51104 5.23896 -6.60496e-08 3.375 -1.47526e-07C1.51104 -2.29002e-07 -6.60496e-08 1.51104 -1.47526e-07 3.375Z" fill="white"/>
<path d="M-1.03268e-06 23.625C-1.11416e-06 25.489 1.51104 27 3.375 27C5.23896 27 6.75 25.489 6.75 23.625C6.75 21.761 5.23896 20.25 3.375 20.25C1.51104 20.25 -9.51205e-07 21.761 -1.03268e-06 23.625Z" fill="white"/>
</svg>
