<svg width="48" height="39" viewBox="0 0 48 39" fill="none" xmlns="http://www.w3.org/2000/svg">
<path d="M10.5707 0.291702C1.6884 2.03193 -2.41684 10.0981 1.46448 18.1643C3.28074 21.927 6.63958 26.1599 11.8893 31.2866C14.9745 34.2732 20.7467 39 21.319 39C21.7917 39 21.8912 37.9888 21.8912 32.8387C21.8912 27.9707 21.8663 27.712 21.3936 27.4298C21.0204 27.1947 20.896 26.8654 20.896 26.0188C20.896 25.1487 20.9955 24.843 21.3936 24.6549C21.8663 24.4197 21.8912 24.161 21.8912 20.4689C21.8912 17.7175 21.9907 16.4241 22.1898 16.2359C22.3639 16.0713 23.1601 15.9537 23.9563 15.9537C25.2252 15.9537 25.5237 16.0478 26.0213 16.5417C26.5687 17.1061 26.7429 17.1296 29.2309 17.1296H31.8433V17.9291C31.8433 18.5406 31.7189 18.7522 31.3208 18.8463C31.0472 18.9168 30.7486 19.199 30.674 19.4577C30.5744 19.8105 30.3007 19.9516 29.5046 19.9986C28.6089 20.0691 28.4845 20.1397 28.4845 20.6571C28.4845 21.2215 28.584 21.245 30.1017 21.3626L31.7189 21.4801L31.7936 22.3503L31.8682 23.2204L29.0567 23.2909C26.3697 23.3615 26.2453 23.385 26.1706 23.8788C26.1209 24.2081 26.2701 24.4903 26.5936 24.6549C27.0165 24.8665 27.1161 25.1252 27.1161 26.1599C27.1161 27.2182 27.0414 27.4298 26.6185 27.5474C26.1457 27.665 26.1209 27.8531 26.1209 33.0503C26.1209 35.9899 26.2204 38.5532 26.3448 38.7413C26.6931 39.2352 27.7878 38.4826 32.5151 34.4378C40.4519 27.6885 45.9007 20.9157 47.5179 15.7656C48.2394 13.508 48.1399 9.95702 47.294 7.95811C45.8758 4.66579 43.2883 2.31413 39.606 0.973682C38.1878 0.456318 37.5409 0.362251 35.3266 0.362251C32.9878 0.362251 32.5151 0.4328 30.6988 1.09127C28.4596 1.93786 26.5438 3.32534 25.0261 5.23019C24.5036 5.88865 24.006 6.3825 23.9065 6.31195C23.8319 6.26492 23.4835 5.84162 23.185 5.37128C21.3438 2.78446 18.2089 0.926651 14.4769 0.221153C12.8845 -0.0845642 12.5113 -0.0845642 10.5707 0.291702Z" fill="#FD003B"/>
</svg>
