<svg width="32" height="32" viewBox="0 0 32 32" fill="none" xmlns="http://www.w3.org/2000/svg">
<path d="M31.0936 16.3599C31.0936 15.3066 31.0013 14.3066 30.8429 13.3333H15.9302V19.3466H24.4687C24.086 21.3199 22.9642 22.9866 21.3014 24.1199V28.1199H26.3955C29.378 25.3333 31.0936 21.2266 31.0936 16.3599Z" fill="#4285F4"/>
<path d="M15.9305 31.9999C20.2063 31.9999 23.7828 30.5599 26.3958 28.1199L21.3017 24.1199C19.8764 25.0799 18.0684 25.6666 15.9305 25.6666C11.7998 25.6666 8.30256 22.8532 7.04883 19.0532H1.79639V23.1732C4.39622 28.3999 9.74104 31.9999 15.9305 31.9999Z" fill="#34A853"/>
<path d="M7.04862 19.0533C6.7187 18.0933 6.54713 17.0667 6.54713 16C6.54713 14.9333 6.73189 13.9067 7.04862 12.9467V8.82666H1.79618C0.714014 10.9867 0.09375 13.4133 0.09375 16C0.09375 18.5867 0.714014 21.0133 1.79618 23.1733L7.04862 19.0533Z" fill="#FBBC05"/>
<path d="M15.9305 6.33333C18.2664 6.33333 20.3515 7.14667 22.0012 8.73333L26.5146 4.17333C23.7828 1.58667 20.2063 0 15.9305 0C9.74104 0 4.39622 3.6 1.79639 8.82667L7.04883 12.9467C8.30256 9.14667 11.7998 6.33333 15.9305 6.33333Z" fill="#EA4335"/>
</svg>
