<svg width="407" height="522" viewBox="0 0 407 522" fill="none" xmlns="http://www.w3.org/2000/svg">
<path d="M40.8462 191.706C-28.2117 268.975 -5.84796 379.868 90.3061 437.484C135.212 464.321 197.886 485.738 284.711 503.793C335.54 514.132 424.203 524.562 429.491 520.744C433.858 517.591 427.219 506.458 388.723 453.14C352.336 402.743 350.172 400.231 343.695 400.463C338.489 400.518 334.879 397.939 328.551 389.175C322.047 380.167 320.681 376.338 322.953 371.735C325.563 366.146 323.859 363.302 296.261 325.079C275.695 296.594 266.946 282.539 267.379 279.264C267.758 276.398 274.235 269.869 281.591 264.558C293.314 256.094 296.776 255.076 305.065 256.869C314.341 259.061 316.126 258.142 339.114 241.545L363.251 224.118L369.227 232.396C373.798 238.726 374.23 241.747 371.255 245.376C369.254 247.932 368.605 252.845 369.849 256.021C371.566 260.337 370.092 263.624 363.088 269.422C355.34 276.127 354.718 277.687 358.585 283.044C362.804 288.887 363.899 288.466 378.8 279.559L394.621 269.988L401.815 278.498L409.008 287.009L383.56 306.494C359.26 325.149 358.287 326.223 361.288 331.833C363.29 335.574 366.778 337.5 370.997 337.046C376.487 336.416 379.34 338.43 387.075 349.142C394.985 360.098 395.877 362.787 392.848 366.826C389.36 371.197 390.536 373.31 429.384 427.116C451.357 457.548 471.436 483.422 473.992 484.54C480.902 487.329 485.391 472.235 498.833 398.825C521.714 276.006 521.432 169.54 497.877 105.434C487.669 77.2483 460.206 41.1494 437.449 26.0982C399.736 1.47399 358.251 -5.61102 314.21 5.07568C297.239 9.17999 290.559 12.5215 270.101 27.2931C248.492 42.8946 244.652 46.7785 232.793 65.7114C218.432 89.4137 211.103 116.558 211.319 146.403C211.413 156.705 210.507 165.137 209.06 165.071C208.019 165.082 201.637 163.023 195.363 160.145C159.016 145.647 116.164 147.326 76.4094 164.918C59.4122 172.375 55.964 174.865 40.8462 191.706Z" fill="url(#paint0_linear_60_68)"/>
<defs>
<linearGradient id="paint0_linear_60_68" x1="454.262" y1="502.86" x2="162.743" y2="99.1008" gradientUnits="userSpaceOnUse">
<stop stop-color="#FD003B"/>
<stop offset="0.747917" stop-color="#FD003B" stop-opacity="0.68"/>
<stop offset="0.930208" stop-color="#FD003B" stop-opacity="0.54"/>
<stop offset="1" stop-color="#FD003B" stop-opacity="0.5"/>
</linearGradient>
</defs>
</svg>
