<svg width="453" height="525" viewBox="0 0 453 525" fill="none" xmlns="http://www.w3.org/2000/svg">
<path d="M151.472 10.8009C54.5037 -25.759 -40.8713 35.0772 -59.9502 145.536C-68.7952 197.098 -66.1785 263.278 -51.7194 350.773C-43.0398 401.912 -20.806 488.374 -15.3393 491.929C-10.8234 494.867 -2.83249 484.661 33.0231 429.532C66.914 377.424 68.4773 374.5 65.926 368.542C63.998 363.706 65.1017 359.409 70.9958 350.347C77.0536 341.033 80.1327 338.379 85.2454 338.838C91.3986 339.258 93.4373 336.644 119.142 297.122C138.298 267.67 148.253 254.443 151.464 253.666C154.274 252.986 162.699 256.674 170.305 261.621C182.426 269.505 184.624 272.367 185.939 280.745C187.239 290.187 188.739 291.521 212.507 306.98L237.464 323.212L231.897 331.771C227.64 338.316 224.978 339.808 220.52 338.342C217.415 337.396 212.598 338.562 210.084 340.867C206.677 344.025 203.08 343.835 195.147 339.391C186.099 334.581 184.42 334.564 180.818 340.102C176.889 346.143 177.676 347.013 191.356 357.702L205.986 369.009L200.642 378.787L195.297 388.564L167.948 371.851C141.787 355.911 140.435 355.39 136.283 360.212C133.516 363.427 132.977 367.375 134.921 371.147C137.488 376.041 136.638 379.428 129.434 390.504C122.066 401.832 119.88 403.634 115.021 402.264C109.686 400.586 108.139 402.445 71.9555 458.077C51.49 489.544 34.5948 517.6 34.4734 520.387C34.3628 527.838 50.06 526.584 123.38 512.658C246.19 489.726 345.395 451.082 396.699 406.002C419.31 386.319 443.081 347.689 448.917 321.036C458.29 276.983 449.944 235.733 424.099 198.505C414.153 184.155 408.628 179.129 387.474 165.371C365.132 150.84 360.125 148.658 338.19 144.421C310.905 139.571 282.943 142.519 255.183 153.48C245.608 157.282 237.416 159.476 236.956 158.103C236.571 157.135 236.19 150.44 236.612 143.55C237.033 104.421 220.02 65.056 189.279 34.316C176.196 21.1499 172.631 18.8311 151.472 10.8009Z" fill="url(#paint0_linear_60_67)"/>
<defs>
<linearGradient id="paint0_linear_60_67" x1="10.2727" y1="508.587" x2="281.793" y2="91.1183" gradientUnits="userSpaceOnUse">
<stop stop-color="#FD003B"/>
<stop offset="0.747917" stop-color="#FD003B" stop-opacity="0.68"/>
<stop offset="0.930208" stop-color="#FD003B" stop-opacity="0.54"/>
<stop offset="1" stop-color="#FD003B" stop-opacity="0.5"/>
</linearGradient>
</defs>
</svg>
