<svg width="29" height="28" viewBox="0 0 29 28" fill="none" xmlns="http://www.w3.org/2000/svg">
<path d="M13.5367 0.372239C14.0861 -0.12408 14.9139 -0.12408 15.4633 0.372239L28.5133 12.1617C29.1118 12.7024 29.1658 13.6339 28.6337 14.2422C28.1017 14.8505 27.1852 14.9053 26.5867 14.3646L26.1 13.9249V25.0526C26.1 26.6804 24.8016 28 23.2 28H5.80001C4.19839 28 2.90001 26.6804 2.90001 25.0526V13.9249L2.41334 14.3646C1.81481 14.9053 0.898302 14.8505 0.366272 14.2422C-0.165759 13.6339 -0.111847 12.7024 0.486687 12.1617L13.5367 0.372239ZM5.80001 11.3051V25.0526H10.15V17.6842C10.15 16.8703 10.7992 16.2105 11.6 16.2105H17.4C18.2008 16.2105 18.85 16.8703 18.85 17.6842V25.0526H23.2V11.3051L14.5 3.44541L5.80001 11.3051ZM15.95 25.0526V19.1579H13.05V25.0526H15.95Z" fill="white"/>
</svg>
