<svg width="25" height="25" viewBox="0 0 25 25" fill="none" xmlns="http://www.w3.org/2000/svg">
<path d="M12.5 0C12.9735 0 13.4063 0.280108 13.618 0.723542L16.8417 7.4746L23.9299 8.5542C24.4007 8.62591 24.7918 8.97124 24.9388 9.44501C25.0858 9.91879 24.9632 10.4389 24.6226 10.7866L19.4637 16.0536L20.6242 23.4797C20.7009 23.9705 20.5053 24.4644 20.1195 24.7544C19.7337 25.0444 19.2242 25.0804 18.8047 24.8473L12.5 21.3443L6.19529 24.8473C5.77575 25.0804 5.26631 25.0444 4.88048 24.7544C4.49466 24.4644 4.29911 23.9705 4.37581 23.4797L5.5363 16.0536L0.37741 10.7866C0.0367792 10.4389 -0.085796 9.91879 0.0612118 9.44501C0.20822 8.97124 0.599321 8.62591 1.07011 8.5542L8.15835 7.4746L11.382 0.723542C11.5937 0.280108 12.0265 0 12.5 0ZM12.5 4.23569L10.1024 9.25682C9.91948 9.63993 9.56911 9.90508 9.16431 9.96673L3.93551 10.7631L7.74764 14.6551C8.03975 14.9533 8.17449 15.3821 8.10861 15.8036L7.25002 21.2978L11.9141 18.7063C12.2805 18.5028 12.7195 18.5028 13.0859 18.7063L17.75 21.2978L16.8914 15.8036C16.8255 15.3821 16.9603 14.9533 17.2524 14.6551L21.0645 10.7631L15.8357 9.96673C15.4309 9.90508 15.0805 9.63993 14.8976 9.25682L12.5 4.23569Z" fill="#31302E"/>
</svg>
