<svg width="20" height="20" viewBox="0 0 20 20" fill="none" xmlns="http://www.w3.org/2000/svg">
<path d="M13.9925 0.308309C14.4036 -0.10277 15.0701 -0.10277 15.4812 0.308309L19.6917 4.51884C20.1028 4.92991 20.1028 5.5964 19.6917 6.00748L6.00748 19.6917C5.81007 19.8891 5.54233 20 5.26316 20H1.05263C0.471279 20 0 19.5287 0 18.9474V14.7368C0 14.4577 0.110902 14.1899 0.308309 13.9925L10.8344 3.46642L13.9925 0.308309ZM11.5789 5.69917L2.10526 15.1729V17.8947H4.82714L14.3008 8.42105L11.5789 5.69917ZM15.7895 6.93241L17.4587 5.26316L14.7368 2.54128L13.0676 4.21053L15.7895 6.93241Z" fill="#31302E"/>
</svg>
