<svg width="25" height="25" viewBox="0 0 25 25" fill="none" xmlns="http://www.w3.org/2000/svg">
<path d="M12.5 2.5C11.8096 2.5 11.25 3.05964 11.25 3.75C11.25 5.86532 8.69249 6.92468 7.19673 5.42892C6.70857 4.94076 5.91712 4.94076 5.42896 5.42892C4.94081 5.91708 4.94081 6.70853 5.42896 7.19669C6.92478 8.6925 5.86528 11.25 3.75 11.25C3.05964 11.25 2.5 11.8096 2.5 12.5C2.5 13.1904 3.05964 13.75 3.75 13.75C5.86545 13.75 6.92455 16.3076 5.42888 17.8033C4.94073 18.2915 4.94073 19.0829 5.42888 19.5711C5.91704 20.0592 6.70849 20.0592 7.19665 19.5711C8.69238 18.0753 11.25 19.1346 11.25 21.25C11.25 21.9404 11.8096 22.5 12.5 22.5C13.1904 22.5 13.75 21.9404 13.75 21.25C13.75 19.1346 16.3076 18.0753 17.8033 19.5711C18.2915 20.0592 19.0829 20.0592 19.5711 19.5711C20.0593 19.0829 20.0593 18.2914 19.5711 17.8033C18.0754 16.3076 19.1346 13.75 21.25 13.75C21.9404 13.75 22.5 13.1904 22.5 12.5C22.5 11.8096 21.9404 11.25 21.25 11.25C19.1348 11.25 18.0752 8.69256 19.571 7.19671C20.0592 6.70855 20.0592 5.9171 19.571 5.42894C19.0829 4.94079 18.2914 4.94079 17.8033 5.42894C16.3075 6.92474 13.75 5.86524 13.75 3.75C13.75 3.05964 13.1904 2.5 12.5 2.5ZM8.7602 3.47128C8.9028 1.53038 10.5227 0 12.5 0C14.4773 0 16.0972 1.53038 16.2398 3.47129C17.7131 2.19971 19.9406 2.263 21.3388 3.66117C22.737 5.05935 22.8003 7.28693 21.5286 8.7602C23.4696 8.90276 25 10.5227 25 12.5C25 14.4773 23.4696 16.0972 21.5287 16.2398C22.8003 17.7131 22.737 19.9406 21.3389 21.3388C19.9407 22.737 17.7131 22.8003 16.2398 21.5286C16.0972 23.4696 14.4773 25 12.5 25C10.5227 25 8.90276 23.4696 8.7602 21.5286C7.28694 22.8003 5.05932 22.737 3.66112 21.3388C2.26293 19.9407 2.19965 17.7131 3.47128 16.2398C1.53037 16.0972 0 14.4773 0 12.5C0 10.5227 1.53042 8.90276 3.47136 8.76019C2.19973 7.28693 2.26301 5.05934 3.6612 3.66115C5.05937 2.26298 7.28694 2.19969 8.7602 3.47128Z" fill="#31302E"/>
<path d="M12.5 10C11.837 10 11.2011 10.2634 10.7322 10.7322C10.2634 11.2011 10 11.837 10 12.5C10 13.163 10.2634 13.7989 10.7322 14.2678C11.2011 14.7366 11.837 15 12.5 15C13.163 15 13.7989 14.7366 14.2678 14.2678C14.7366 13.7989 15 13.163 15 12.5C15 11.837 14.7366 11.2011 14.2678 10.7322C13.7989 10.2634 13.163 10 12.5 10ZM8.96447 8.96447C9.90215 8.02678 11.1739 7.5 12.5 7.5C13.8261 7.5 15.0979 8.02678 16.0355 8.96447C16.9732 9.90215 17.5 11.1739 17.5 12.5C17.5 13.8261 16.9732 15.0979 16.0355 16.0355C15.0979 16.9732 13.8261 17.5 12.5 17.5C11.1739 17.5 9.90215 16.9732 8.96447 16.0355C8.02678 15.0979 7.5 13.8261 7.5 12.5C7.5 11.1739 8.02678 9.90215 8.96447 8.96447Z" fill="#31302E"/>
</svg>
