<svg width="97" height="83" viewBox="0 0 97 83" fill="none" xmlns="http://www.w3.org/2000/svg">
<path d="M55.4286 0C32.4719 0 13.8571 18.5828 13.8571 41.5H0L18.4762 59.9444L36.9524 41.5H23.0952C23.0952 23.655 37.5529 9.22222 55.4286 9.22222C73.3043 9.22222 87.7619 23.655 87.7619 41.5C87.7619 59.345 73.3043 73.7778 55.4286 73.7778C48.4538 73.7778 41.9871 71.5183 36.6752 67.7833L30.1162 74.4233C37.1371 79.7722 45.9133 83 55.4286 83C78.3852 83 97 64.4172 97 41.5C97 18.5828 78.3852 0 55.4286 0Z" fill="#323232"/>
</svg>
