<svg width="137" height="137" viewBox="0 0 137 137" fill="none" xmlns="http://www.w3.org/2000/svg">
<circle cx="68.5" cy="68.5" r="68.5" fill="url(#paint0_linear_173_219)"/>
<path fill-rule="evenodd" clip-rule="evenodd" d="M68.5001 38C59.4019 38 58.2611 38.0386 54.688 38.2016C51.1223 38.3642 48.6871 38.9306 46.5562 39.7588C44.3533 40.6148 42.4851 41.7602 40.6226 43.6226C38.7602 45.4851 37.6148 47.3533 36.7588 49.5562C35.9306 51.6871 35.3642 54.1223 35.2016 57.688C35.0386 61.2611 35 62.4019 35 71.5001C35 80.5981 35.0386 81.7389 35.2016 85.312C35.3642 88.8777 35.9306 91.3129 36.7588 93.4438C37.6148 95.6467 38.7602 97.5149 40.6226 99.3774C42.4851 101.24 44.3533 102.385 46.5562 103.241C48.6871 104.069 51.1223 104.636 54.688 104.798C58.2611 104.961 59.4019 105 68.5001 105C77.5981 105 78.7389 104.961 82.312 104.798C85.8777 104.636 88.3129 104.069 90.4438 103.241C92.6467 102.385 94.5149 101.24 96.3774 99.3774C98.2398 97.5149 99.3852 95.6467 100.241 93.4438C101.069 91.3129 101.636 88.8777 101.798 85.312C101.961 81.7389 102 80.5981 102 71.5001C102 62.4019 101.961 61.2611 101.798 57.688C101.636 54.1223 101.069 51.6871 100.241 49.5562C99.3852 47.3533 98.2398 45.4851 96.3774 43.6226C94.5149 41.7602 92.6467 40.6148 90.4438 39.7588C88.3129 38.9306 85.8777 38.3642 82.312 38.2016C78.7389 38.0386 77.5981 38 68.5001 38ZM68.5001 44.0361C77.4449 44.0361 78.5044 44.0703 82.0369 44.2315C85.3031 44.3804 87.0769 44.9262 88.2573 45.3849C89.821 45.9927 90.937 46.7186 92.1092 47.8909C93.2815 49.0631 94.0075 50.1791 94.6152 51.7428C95.0739 52.9232 95.6197 54.697 95.7686 57.9632C95.9298 61.4957 95.964 62.5553 95.964 71.5002C95.964 80.445 95.9298 81.5046 95.7686 85.037C95.6197 88.3032 95.0739 90.077 94.6152 91.2575C94.0075 92.8212 93.2815 93.9371 92.1092 95.1093C90.937 96.2817 89.821 97.0076 88.2573 97.6153C87.0769 98.0741 85.3031 98.6198 82.0369 98.7687C78.505 98.9299 77.4455 98.9641 68.5001 98.9641C59.5545 98.9641 58.4952 98.9299 54.9631 98.7687C51.6969 98.6198 49.9231 98.0741 48.7427 97.6153C47.179 97.0076 46.063 96.2817 44.8908 95.1093C43.7186 93.9371 42.9925 92.8212 42.3848 91.2575C41.926 90.077 41.3803 88.3032 41.2314 85.037C41.0702 81.5046 41.036 80.445 41.036 71.5002C41.036 62.5553 41.0702 61.4957 41.2314 57.9632C41.3803 54.697 41.926 52.9232 42.3848 51.7428C42.9925 50.1791 43.7185 49.0631 44.8908 47.8909C46.063 46.7186 47.179 45.9927 48.7427 45.3849C49.9231 44.9262 51.6969 44.3804 54.9631 44.2315C58.4956 44.0703 59.5551 44.0361 68.5001 44.0361Z" fill="white"/>
<path fill-rule="evenodd" clip-rule="evenodd" d="M68.5001 82.6668C62.3328 82.6668 57.3334 77.6674 57.3334 71.5002C57.3334 65.333 62.3328 60.3335 68.5001 60.3335C74.6672 60.3335 79.6667 65.333 79.6667 71.5002C79.6667 77.6674 74.6672 82.6668 68.5001 82.6668ZM68.5001 54.2974C58.9992 54.2974 51.2974 61.9992 51.2974 71.5001C51.2974 81.0009 58.9992 88.7027 68.5001 88.7027C78.0009 88.7027 85.7027 81.0009 85.7027 71.5001C85.7027 61.9992 78.0009 54.2974 68.5001 54.2974Z" fill="white"/>
<g filter="url(#filter0_d_173_219)">
<path fill-rule="evenodd" clip-rule="evenodd" d="M90.4023 53.6177C90.4023 55.8379 88.6025 57.6377 86.3822 57.6377C84.1622 57.6377 82.3623 55.8379 82.3623 53.6177C82.3623 51.3975 84.1622 49.5977 86.3822 49.5977C88.6025 49.5977 90.4023 51.3975 90.4023 53.6177" fill="white"/>
</g>
<defs>
<filter id="filter0_d_173_219" x="73.9873" y="37.0352" width="24.79" height="24.79" filterUnits="userSpaceOnUse" color-interpolation-filters="sRGB">
<feFlood flood-opacity="0" result="BackgroundImageFix"/>
<feColorMatrix in="SourceAlpha" type="matrix" values="0 0 0 0 0 0 0 0 0 0 0 0 0 0 0 0 0 0 127 0" result="hardAlpha"/>
<feOffset dy="-4.1875"/>
<feGaussianBlur stdDeviation="4.1875"/>
<feColorMatrix type="matrix" values="0 0 0 0 0 0 0 0 0 0 0 0 0 0 0 0 0 0 0.53 0"/>
<feBlend mode="normal" in2="BackgroundImageFix" result="effect1_dropShadow_173_219"/>
<feBlend mode="normal" in="SourceGraphic" in2="effect1_dropShadow_173_219" result="shape"/>
</filter>
<linearGradient id="paint0_linear_173_219" x1="15" y1="69" x2="137" y2="69" gradientUnits="userSpaceOnUse">
<stop stop-color="#F56A3E"/>
<stop offset="0.526042" stop-color="#E23769"/>
<stop offset="0.71875" stop-color="#C92E89"/>
<stop offset="1" stop-color="#C42C8F"/>
</linearGradient>
</defs>
</svg>
