<svg width="194" height="40" viewBox="0 0 194 40" fill="none" xmlns="http://www.w3.org/2000/svg">
<path d="M1.46448 18.1643C-2.41684 10.0981 1.68841 2.03193 10.5707 0.291704C12.5113 -0.0845626 12.8845 -0.0845626 14.4769 0.221155C18.2089 0.926653 21.3438 2.78446 23.185 5.37129C23.4835 5.84162 23.8319 6.26492 23.9065 6.31195C24.006 6.3825 24.5036 5.88865 25.0261 5.23019C26.5438 3.32534 28.4596 1.93786 30.6988 1.09127C32.5151 0.432802 32.9878 0.362253 35.3266 0.362253C37.5409 0.362253 38.1878 0.45632 39.606 0.973684C43.2883 2.31413 45.8758 4.66579 47.294 7.95811C48.1399 9.95702 48.2394 13.508 47.5179 15.7656C45.9007 20.9157 40.4519 27.6885 32.5151 34.4378C27.7878 38.4826 26.6931 39.2352 26.3448 38.7413C26.2204 38.5532 26.1209 35.9899 26.1209 33.0503C26.1209 27.8531 26.1457 27.665 26.6185 27.5474C27.0414 27.4298 27.1161 27.2182 27.1161 26.1599C27.1161 25.1252 27.0165 24.8665 26.5936 24.6549C26.2701 24.4903 26.1209 24.2081 26.1706 23.8788C26.2453 23.385 26.3697 23.3615 29.0567 23.2909L31.8682 23.2204L31.7189 21.4801L30.1017 21.3626C28.584 21.245 28.4845 21.2215 28.4845 20.6571C28.4845 20.1397 28.6089 20.0692 29.5046 19.9986C30.3007 19.9516 30.5744 19.8105 30.674 19.4577C30.7486 19.199 31.0472 18.9168 31.3208 18.8463C31.7189 18.7522 31.8433 18.5406 31.8433 17.9291V17.1296H29.2309C26.7429 17.1296 26.5687 17.1061 26.0213 16.5417C25.5237 16.0478 25.2252 15.9537 23.9563 15.9537C23.1601 15.9537 22.3639 16.0713 22.1898 16.2359C21.9907 16.4241 21.8912 17.7175 21.8912 20.4689C21.8912 24.161 21.8663 24.4197 21.3936 24.6549C20.9955 24.843 20.896 25.1487 20.896 26.0188C20.896 26.8654 21.0204 27.1947 21.3936 27.4298C21.8663 27.712 21.8912 27.9707 21.8912 32.8387C21.8912 37.9888 21.7917 39 21.319 39C20.7467 39 14.9745 34.2732 11.8893 31.2866C6.63958 26.1599 3.28074 21.927 1.46448 18.1643Z" fill="#FC003B"/>
<path d="M71.456 21.08L79.008 31H85.696L76.672 19.544L85.376 8.536H78.944L71.456 18.392V8.536H65.984V31H71.456V21.08Z" fill="#FC003B"/>
<path fill-rule="evenodd" clip-rule="evenodd" d="M105.033 23.384C105.096 22.8293 105.129 22.296 105.129 21.784C105.129 19.992 104.744 18.424 103.977 17.08C103.23 15.736 102.185 14.7013 100.84 13.976C99.4965 13.2507 97.9605 12.888 96.2325 12.888C94.4618 12.888 92.8938 13.2613 91.5285 14.008C90.1632 14.7547 89.0965 15.8213 88.3285 17.208C87.5818 18.5947 87.2085 20.216 87.2085 22.072C87.2085 23.928 87.5925 25.5493 88.3605 26.936C89.1285 28.3227 90.1952 29.3893 91.5605 30.136C92.9258 30.8827 94.4832 31.256 96.2325 31.256C97.6832 31.256 98.9952 30.9893 100.169 30.456C101.342 29.9227 102.312 29.1867 103.081 28.248C103.87 27.3093 104.414 26.2533 104.713 25.08H98.8885C98.3552 26.232 97.4058 26.808 96.0405 26.808C95.1232 26.808 94.3445 26.52 93.7045 25.944C93.0858 25.3467 92.7338 24.4933 92.6485 23.384H105.033ZM98.5685 18.104C99.2085 18.6587 99.5285 19.4053 99.5285 20.344H92.6805C92.8298 19.3627 93.2138 18.6053 93.8325 18.072C94.4725 17.5387 95.2512 17.272 96.1685 17.272C97.1285 17.272 97.9285 17.5493 98.5685 18.104Z" fill="#FC003B"/>
<path d="M115.055 39.48L126.255 13.144H120.335L116.239 24.312L112.111 13.144H105.999L113.263 30.392L109.167 39.48H115.055Z" fill="#FC003B"/>
<path d="M131.338 30.456C132.554 30.9893 133.941 31.256 135.498 31.256C136.949 31.256 138.218 31.0213 139.306 30.552C140.415 30.0827 141.258 29.4427 141.834 28.632C142.431 27.8 142.73 26.8613 142.73 25.816C142.709 24.5787 142.378 23.5973 141.738 22.872C141.119 22.1253 140.394 21.592 139.562 21.272C138.73 20.9307 137.653 20.5893 136.33 20.248C135.178 19.992 134.325 19.736 133.77 19.48C133.237 19.224 132.97 18.84 132.97 18.328C132.97 17.9013 133.141 17.5707 133.482 17.336C133.823 17.08 134.314 16.952 134.954 16.952C135.701 16.952 136.298 17.1333 136.746 17.496C137.215 17.8587 137.493 18.3493 137.578 18.968H142.634C142.442 17.1333 141.695 15.6613 140.394 14.552C139.114 13.4427 137.354 12.888 135.114 12.888C133.599 12.888 132.287 13.1333 131.178 13.624C130.09 14.1147 129.258 14.7867 128.682 15.64C128.127 16.472 127.85 17.4 127.85 18.424C127.85 19.64 128.159 20.6107 128.778 21.336C129.397 22.04 130.133 22.5627 130.986 22.904C131.839 23.224 132.906 23.5333 134.186 23.832C135.381 24.1307 136.245 24.408 136.778 24.664C137.311 24.8987 137.578 25.272 137.578 25.784C137.578 26.2107 137.386 26.5627 137.002 26.84C136.639 27.096 136.117 27.224 135.434 27.224C134.687 27.224 134.058 27.032 133.546 26.648C133.034 26.264 132.746 25.7627 132.682 25.144H127.274C127.359 26.296 127.754 27.3413 128.458 28.28C129.162 29.1973 130.122 29.9227 131.338 30.456Z" fill="#FC003B"/>
<path d="M151.55 31V7.32H146.078V31H151.55Z" fill="#FC003B"/>
<path fill-rule="evenodd" clip-rule="evenodd" d="M158.907 30.136C160.315 30.8827 161.894 31.256 163.643 31.256C165.393 31.256 166.971 30.8827 168.379 30.136C169.809 29.3893 170.929 28.3227 171.739 26.936C172.571 25.528 172.987 23.9067 172.987 22.072C172.987 20.2373 172.582 18.6267 171.771 17.24C170.961 15.832 169.851 14.7547 168.443 14.008C167.035 13.2613 165.457 12.888 163.707 12.888C161.958 12.888 160.379 13.2613 158.971 14.008C157.563 14.7547 156.454 15.832 155.643 17.24C154.833 18.6267 154.427 20.2373 154.427 22.072C154.427 23.928 154.822 25.5493 155.611 26.936C156.422 28.3227 157.521 29.3893 158.907 30.136ZM166.299 25.368C165.574 26.136 164.689 26.52 163.643 26.52C162.598 26.52 161.723 26.136 161.019 25.368C160.337 24.6 159.995 23.5013 159.995 22.072C159.995 20.6213 160.347 19.5227 161.051 18.776C161.755 18.008 162.641 17.624 163.707 17.624C164.753 17.624 165.627 18.008 166.331 18.776C167.057 19.544 167.419 20.6427 167.419 22.072C167.419 23.5013 167.046 24.6 166.299 25.368Z" fill="#FC003B"/>
<path d="M187.794 13.144L183.922 25.88L180.05 13.144H174.194L180.53 31H187.282L193.618 13.144H187.794Z" fill="#FC003B"/>
</svg>
