<svg width="129" height="33" viewBox="0 0 129 33" fill="none" xmlns="http://www.w3.org/2000/svg">
<path d="M14.008 24L6.456 14.08V24H0.984V1.536H6.456V11.392L13.944 1.536H20.376L11.672 12.544L20.696 24H14.008ZM40.1285 14.784C40.1285 15.296 40.0965 15.8293 40.0325 16.384H27.6485C27.7338 17.4933 28.0858 18.3467 28.7045 18.944C29.3445 19.52 30.1232 19.808 31.0405 19.808C32.4058 19.808 33.3552 19.232 33.8885 18.08H39.7125C39.4138 19.2533 38.8698 20.3093 38.0805 21.248C37.3125 22.1867 36.3418 22.9227 35.1685 23.456C33.9952 23.9893 32.6832 24.256 31.2325 24.256C29.4832 24.256 27.9258 23.8827 26.5605 23.136C25.1952 22.3893 24.1285 21.3227 23.3605 19.936C22.5925 18.5493 22.2085 16.928 22.2085 15.072C22.2085 13.216 22.5818 11.5947 23.3285 10.208C24.0965 8.82133 25.1632 7.75467 26.5285 7.008C27.8938 6.26133 29.4618 5.888 31.2325 5.888C32.9605 5.888 34.4965 6.25067 35.8405 6.976C37.1845 7.70133 38.2298 8.736 38.9765 10.08C39.7445 11.424 40.1285 12.992 40.1285 14.784ZM34.5285 13.344C34.5285 12.4053 34.2085 11.6587 33.5685 11.104C32.9285 10.5493 32.1285 10.272 31.1685 10.272C30.2512 10.272 29.4725 10.5387 28.8325 11.072C28.2138 11.6053 27.8298 12.3627 27.6805 13.344H34.5285ZM61.2553 6.144L50.0553 32.48H44.1673L48.2633 23.392L40.9992 6.144H47.1113L51.2393 17.312L55.3353 6.144H61.2553ZM70.498 24.256C68.9407 24.256 67.554 23.9893 66.338 23.456C65.122 22.9227 64.162 22.1973 63.458 21.28C62.754 20.3413 62.3593 19.296 62.274 18.144H67.682C67.746 18.7627 68.034 19.264 68.546 19.648C69.058 20.032 69.6873 20.224 70.434 20.224C71.1167 20.224 71.6393 20.096 72.002 19.84C72.386 19.5627 72.578 19.2107 72.578 18.784C72.578 18.272 72.3113 17.8987 71.778 17.664C71.2447 17.408 70.3807 17.1307 69.186 16.832C67.906 16.5333 66.8393 16.224 65.986 15.904C65.1327 15.5627 64.3967 15.04 63.778 14.336C63.1593 13.6107 62.85 12.64 62.85 11.424C62.85 10.4 63.1273 9.472 63.682 8.64C64.258 7.78667 65.09 7.11467 66.178 6.624C67.2873 6.13333 68.5993 5.888 70.114 5.888C72.354 5.888 74.114 6.44267 75.394 7.552C76.6953 8.66133 77.442 10.1333 77.634 11.968H72.578C72.4927 11.3493 72.2153 10.8587 71.746 10.496C71.298 10.1333 70.7007 9.952 69.954 9.952C69.314 9.952 68.8233 10.08 68.482 10.336C68.1407 10.5707 67.97 10.9013 67.97 11.328C67.97 11.84 68.2367 12.224 68.77 12.48C69.3247 12.736 70.178 12.992 71.33 13.248C72.6527 13.5893 73.73 13.9307 74.562 14.272C75.394 14.592 76.1193 15.1253 76.738 15.872C77.378 16.5973 77.7087 17.5787 77.73 18.816C77.73 19.8613 77.4313 20.8 76.834 21.632C76.258 22.4427 75.4153 23.0827 74.306 23.552C73.218 24.0213 71.9487 24.256 70.498 24.256ZM86.5498 0.32V24H81.0778V0.32H86.5498ZM98.6433 24.256C96.8939 24.256 95.3153 23.8827 93.9073 23.136C92.5206 22.3893 91.4219 21.3227 90.6113 19.936C89.8219 18.5493 89.4273 16.928 89.4273 15.072C89.4273 13.2373 89.8326 11.6267 90.6432 10.24C91.4539 8.832 92.5633 7.75467 93.9713 7.008C95.3793 6.26133 96.9579 5.888 98.7073 5.888C100.457 5.888 102.035 6.26133 103.443 7.008C104.851 7.75467 105.961 8.832 106.771 10.24C107.582 11.6267 107.987 13.2373 107.987 15.072C107.987 16.9067 107.571 18.528 106.739 19.936C105.929 21.3227 104.809 22.3893 103.379 23.136C101.971 23.8827 100.393 24.256 98.6433 24.256ZM98.6433 19.52C99.6886 19.52 100.574 19.136 101.299 18.368C102.046 17.6 102.419 16.5013 102.419 15.072C102.419 13.6427 102.057 12.544 101.331 11.776C100.627 11.008 99.7526 10.624 98.7073 10.624C97.6406 10.624 96.7553 11.008 96.0513 11.776C95.3473 12.5227 94.9953 13.6213 94.9953 15.072C94.9953 16.5013 95.3366 17.6 96.0193 18.368C96.7233 19.136 97.5979 19.52 98.6433 19.52ZM118.922 18.88L122.794 6.144H128.618L122.282 24H115.53L109.194 6.144H115.05L118.922 18.88Z" fill="#FD003B"/>
</svg>
