<svg width="50" height="45" viewBox="0 0 50 45" fill="none" xmlns="http://www.w3.org/2000/svg">
<path d="M45.4545 15.75H31.1136L33.2727 5.4675L33.3409 4.7475C33.3409 3.825 32.9545 2.97 32.3409 2.3625L29.9318 0L14.9773 14.8275C14.1364 15.6375 13.6364 16.7625 13.6364 18V40.5C13.6364 42.975 15.6818 45 18.1818 45H38.6364C40.5227 45 42.1364 43.875 42.8182 42.255L49.6818 26.3925C49.8864 25.875 50 25.335 50 24.75V20.25C50 17.775 47.9545 15.75 45.4545 15.75ZM45.4545 24.75L38.6364 40.5H18.1818V18L28.0455 8.235L25.5227 20.25H45.4545V24.75ZM0 18H9.09091V45H0V18Z" fill="white"/>
</svg>
