<svg width="24" height="33" viewBox="0 0 24 33" fill="none" xmlns="http://www.w3.org/2000/svg">
<path d="M11.833 20.5439C14.5602 20.5439 16.7616 18.2871 16.7616 15.4913V5.38601C16.7616 2.59022 14.5602 0.333374 11.833 0.333374C9.10587 0.333374 6.90444 2.59022 6.90444 5.38601V15.4913C6.90444 18.2871 9.10587 20.5439 11.833 20.5439ZM10.1902 5.38601C10.1902 4.45969 10.9294 3.7018 11.833 3.7018C12.7366 3.7018 13.4759 4.45969 13.4759 5.38601V15.4913C13.4759 16.4176 12.7366 17.1755 11.833 17.1755C10.9294 17.1755 10.1902 16.4176 10.1902 15.4913V5.38601ZM20.0473 15.4913C20.0473 20.1397 16.3673 23.9123 11.833 23.9123C7.29872 23.9123 3.61872 20.1397 3.61872 15.4913H0.333008C0.333008 21.4365 4.62086 26.3207 10.1902 27.146V32.3334H13.4759V27.146C19.0452 26.3207 23.333 21.4365 23.333 15.4913H20.0473Z" fill="#323232"/>
</svg>
