<svg width="23" height="32" viewBox="0 0 23 32" fill="none" xmlns="http://www.w3.org/2000/svg">
<path d="M9.87885 4.87907C9.87885 3.76866 10.5628 2.86015 11.3987 2.86015C12.2346 2.86015 12.9185 3.76866 12.9185 4.87907L12.9058 11.4574L15.1982 14.469V5.04732C15.1982 2.25447 13.5011 0 11.3987 0C9.44824 0 7.86509 1.95163 7.64978 4.45846L9.87885 7.41956V4.87907ZM20.2643 15.142H18.1112C18.1112 16.1178 17.9846 17.0431 17.7693 17.9012L19.3778 20.0379C19.935 18.5573 20.2643 16.8917 20.2643 15.142ZM1.78579 1.4469L0 3.81914L7.59912 13.9138V15.142C7.59912 17.9348 9.29626 20.1893 11.3987 20.1893C11.69 20.1893 11.9559 20.1388 12.2219 20.0547L14.3243 22.8475C13.4251 23.4027 12.4246 23.7224 11.3987 23.7224C7.90308 23.7224 4.68612 20.1893 4.68612 15.142H2.53304C2.53304 20.8791 5.97797 25.6236 10.1322 26.4479V31.9663H12.6652V26.4479C13.8177 26.2292 14.9069 25.6908 15.8948 24.9338L21.2142 32L23 29.6278L1.78579 1.4469Z" fill="#323232"/>
</svg>
