<svg width="206" height="174" viewBox="0 0 206 174" fill="none" xmlns="http://www.w3.org/2000/svg">
<path opacity="0.15" d="M45.3658 1.30145C7.24607 9.06554 -10.3723 45.0531 6.28507 81.0408C14.0799 97.828 28.4949 116.714 51.025 139.586C64.2655 152.911 89.038 174 91.4939 174C93.5227 174 93.9498 169.488 93.9498 146.511C93.9498 124.792 93.843 123.638 91.8142 122.379C90.2125 121.33 89.6786 119.861 89.6786 116.084C89.6786 112.202 90.1058 110.838 91.8142 109.999C93.843 108.95 93.9498 107.795 93.9498 91.3229C93.9498 79.0473 94.3769 73.2767 95.2311 72.4373C95.9786 71.7029 99.3954 71.1783 102.812 71.1783C108.258 71.1783 109.539 71.5979 111.675 73.8013C114.024 76.3194 114.771 76.4243 125.449 76.4243H136.661V79.9916C136.661 82.7195 136.127 83.6638 134.419 84.0834C133.244 84.3982 131.963 85.6572 131.642 86.8114C131.215 88.3852 130.041 89.0147 126.624 89.2245C122.78 89.5393 122.246 89.854 122.246 92.1623C122.246 94.6804 122.673 94.7853 129.186 95.3099L136.127 95.8345L136.447 99.7165L136.768 103.599L124.702 103.913C113.17 104.228 112.636 104.333 112.316 106.536C112.102 108.005 112.743 109.264 114.131 109.999C115.946 110.943 116.373 112.097 116.373 116.714C116.373 121.435 116.053 122.379 114.238 122.904C112.209 123.428 112.102 124.268 112.102 147.455C112.102 160.57 112.529 172.007 113.063 172.846C114.558 175.049 119.256 171.692 139.544 153.645C173.606 123.533 196.99 93.3164 203.931 70.3389C207.028 60.2666 206.601 44.4236 202.97 35.5054C196.884 20.8166 185.779 10.3246 169.976 4.34413C163.889 2.03589 161.113 1.61621 151.61 1.61621C141.573 1.61621 139.544 1.93097 131.749 4.86873C122.139 8.64586 113.917 14.8362 107.404 23.3347C105.161 26.2724 103.026 28.4758 102.599 28.161C102.278 27.9512 100.784 26.0626 99.5022 23.9642C91.6007 12.423 78.1466 4.13429 62.1299 0.986694C55.2962 -0.377274 53.6945 -0.377274 45.3658 1.30145Z" fill="#FD003B"/>
</svg>
