<svg width="28" height="30" viewBox="0 0 28 30" fill="none" xmlns="http://www.w3.org/2000/svg">
<path d="M11.1162 1.87218C11.5785 0.774238 12.6955 0 14 0C15.3045 0 16.4215 0.774238 16.8838 1.87218C21.498 3.09108 24.8889 7.16369 24.8889 12V19.0458L27.7387 23.1679C28.057 23.6282 28.0866 24.2201 27.8159 24.7078C27.5452 25.1955 27.0181 25.5 26.4444 25.5H19.3893C19.0119 28.0442 16.7428 30 14 30C11.2572 30 8.98809 28.0442 8.61069 25.5H1.55556C0.981876 25.5 0.45476 25.1955 0.184064 24.7078C-0.0866321 24.2201 -0.0569637 23.6282 0.261257 23.1679L3.11111 19.0458V12C3.11111 7.16369 6.50196 3.09108 11.1162 1.87218ZM11.7994 25.5C12.1198 26.3739 12.9841 27 14 27C15.0159 27 15.8802 26.3739 16.2006 25.5H11.7994ZM14 4.5C9.70445 4.5 6.22222 7.85786 6.22222 12V19.5C6.22222 19.7961 6.13132 20.0856 5.96097 20.3321L4.46214 22.5H23.5379L22.039 20.3321C21.8687 20.0856 21.7778 19.7961 21.7778 19.5V12C21.7778 7.85786 18.2955 4.5 14 4.5Z" fill="#0D0D0D"/>
</svg>
