<svg width="167" height="47" viewBox="0 0 167 47" fill="none" xmlns="http://www.w3.org/2000/svg">
<path d="M9.28604 0.238821C1.48322 1.66422 -2.12313 8.27114 1.28651 14.8781C2.88204 17.96 5.83269 21.4272 10.4444 25.6263C13.1547 28.0726 18.2254 31.9443 18.7281 31.9443C19.1434 31.9443 19.2308 31.1161 19.2308 26.8977C19.2308 22.9104 19.209 22.6985 18.7937 22.4674C18.4658 22.2747 18.3566 22.0051 18.3566 21.3116C18.3566 20.5989 18.444 20.3485 18.7937 20.1944C19.209 20.0018 19.2308 19.7899 19.2308 16.7658C19.2308 14.5121 19.3182 13.4527 19.4931 13.2986C19.6461 13.1637 20.3455 13.0674 21.0449 13.0674C22.1596 13.0674 22.4219 13.1445 22.859 13.549C23.3399 14.0113 23.4929 14.0305 25.6785 14.0305H27.9735V14.6854C27.9735 15.1863 27.8642 15.3596 27.5145 15.4367C27.2741 15.4945 27.0118 15.7256 26.9462 15.9375C26.8588 16.2264 26.6184 16.342 25.919 16.3805C25.1321 16.4383 25.0228 16.4961 25.0228 16.9199C25.0228 17.3821 25.1103 17.4014 26.4435 17.4977L27.8642 17.594L27.9298 18.3067L27.9953 19.0194L25.5255 19.0772C23.165 19.135 23.0557 19.1543 22.9902 19.5588C22.9464 19.8284 23.0776 20.0596 23.3617 20.1944C23.7333 20.3678 23.8207 20.5797 23.8207 21.4272C23.8207 22.294 23.7551 22.4674 23.3836 22.5637C22.9683 22.66 22.9464 22.8141 22.9464 27.071C22.9464 29.4788 23.0339 31.5784 23.1432 31.7325C23.4492 32.137 24.4108 31.5206 28.5636 28.2075C35.5359 22.6792 40.3225 17.1317 41.7432 12.9133C42.377 11.0642 42.2896 8.15557 41.5465 6.51829C40.3006 3.82158 38.0275 1.89537 34.7928 0.797424C33.5469 0.373657 32.9787 0.296608 31.0334 0.296608C28.9789 0.296608 28.5636 0.354395 26.9681 0.893736C25.001 1.58717 23.318 2.72364 21.9848 4.28387C21.5258 4.82322 21.0886 5.22772 21.0012 5.16994C20.9356 5.13141 20.6296 4.78469 20.3674 4.39945C18.75 2.28061 15.996 0.7589 12.7175 0.181036C11.3187 -0.0693741 10.9909 -0.0693741 9.28604 0.238821Z" fill="#FC003B"/>
<path d="M61.8191 24L55.7879 16.0778V24H51.4179V6.06H55.7879V13.9311L61.7679 6.06H66.9046L59.9535 14.8511L67.1602 24H61.8191ZM82.6792 16.64C82.6792 17.0489 82.6536 17.4748 82.6025 17.9178H72.7125C72.7807 18.8037 73.0618 19.4852 73.5558 19.9622C74.067 20.4222 74.6888 20.6522 75.4214 20.6522C76.5118 20.6522 77.2699 20.1922 77.6958 19.2722H82.347C82.1084 20.2093 81.674 21.0526 81.0436 21.8022C80.4303 22.5519 79.6551 23.1396 78.7181 23.5656C77.781 23.9915 76.7332 24.2044 75.5747 24.2044C74.1777 24.2044 72.934 23.9063 71.8436 23.31C70.7532 22.7137 69.9014 21.8619 69.2881 20.7544C68.6747 19.647 68.3681 18.3522 68.3681 16.87C68.3681 15.3878 68.6662 14.093 69.2625 12.9856C69.8758 11.8781 70.7277 11.0263 71.8181 10.43C72.9084 9.8337 74.1607 9.53555 75.5747 9.53555C76.9547 9.53555 78.1814 9.82518 79.2547 10.4044C80.3281 10.9837 81.1629 11.81 81.7592 12.8833C82.3725 13.9567 82.6792 15.2089 82.6792 16.64ZM78.207 15.49C78.207 14.7404 77.9514 14.1441 77.4403 13.7011C76.9292 13.2581 76.2903 13.0367 75.5236 13.0367C74.791 13.0367 74.1692 13.2496 73.6581 13.6756C73.164 14.1015 72.8573 14.7063 72.7381 15.49H78.207ZM99.5512 9.74L90.6068 30.7722H85.9046L89.1757 23.5144L83.3746 9.74H88.2557L91.5523 18.6589L94.8235 9.74H99.5512ZM106.933 24.2044C105.689 24.2044 104.581 23.9915 103.61 23.5656C102.639 23.1396 101.873 22.5604 101.31 21.8278C100.748 21.0781 100.433 20.2433 100.365 19.3233H104.684C104.735 19.8174 104.965 20.2178 105.374 20.5244C105.783 20.8311 106.285 20.9844 106.881 20.9844C107.427 20.9844 107.844 20.8822 108.134 20.6778C108.44 20.4563 108.594 20.1752 108.594 19.8344C108.594 19.4256 108.381 19.1274 107.955 18.94C107.529 18.7356 106.839 18.5141 105.885 18.2756C104.863 18.037 104.011 17.79 103.329 17.5344C102.648 17.2619 102.06 16.8444 101.566 16.2822C101.072 15.703 100.825 14.9278 100.825 13.9567C100.825 13.1389 101.046 12.3978 101.489 11.7333C101.949 11.0519 102.614 10.5152 103.483 10.1233C104.369 9.73148 105.416 9.53555 106.626 9.53555C108.415 9.53555 109.82 9.97852 110.843 10.8644C111.882 11.7504 112.478 12.9259 112.631 14.3911H108.594C108.526 13.897 108.304 13.5052 107.929 13.2156C107.571 12.9259 107.094 12.7811 106.498 12.7811C105.987 12.7811 105.595 12.8833 105.323 13.0878C105.05 13.2752 104.914 13.5393 104.914 13.88C104.914 14.2889 105.127 14.5956 105.553 14.8C105.996 15.0044 106.677 15.2089 107.597 15.4133C108.653 15.6859 109.514 15.9585 110.178 16.2311C110.843 16.4867 111.422 16.9126 111.916 17.5089C112.427 18.0881 112.691 18.8719 112.708 19.86C112.708 20.6948 112.47 21.4444 111.993 22.1089C111.533 22.7563 110.86 23.2674 109.974 23.6422C109.105 24.017 108.091 24.2044 106.933 24.2044ZM119.752 5.08889V24H115.382V5.08889H119.752ZM129.41 24.2044C128.013 24.2044 126.752 23.9063 125.627 23.31C124.52 22.7137 123.643 21.8619 122.995 20.7544C122.365 19.647 122.05 18.3522 122.05 16.87C122.05 15.4048 122.373 14.1185 123.021 13.0111C123.668 11.8867 124.554 11.0263 125.679 10.43C126.803 9.8337 128.064 9.53555 129.461 9.53555C130.858 9.53555 132.119 9.8337 133.243 10.43C134.367 11.0263 135.253 11.8867 135.901 13.0111C136.548 14.1185 136.872 15.4048 136.872 16.87C136.872 18.3352 136.54 19.63 135.875 20.7544C135.228 21.8619 134.333 22.7137 133.192 23.31C132.067 23.9063 130.807 24.2044 129.41 24.2044ZM129.41 20.4222C130.245 20.4222 130.952 20.1156 131.531 19.5022C132.127 18.8889 132.425 18.0115 132.425 16.87C132.425 15.7285 132.136 14.8511 131.556 14.2378C130.994 13.6244 130.296 13.3178 129.461 13.3178C128.609 13.3178 127.902 13.6244 127.34 14.2378C126.777 14.8341 126.496 15.7115 126.496 16.87C126.496 18.0115 126.769 18.8889 127.314 19.5022C127.876 20.1156 128.575 20.4222 129.41 20.4222ZM145.605 19.9111L148.697 9.74H153.348L148.288 24H142.896L137.836 9.74H142.513L145.605 19.9111Z" fill="#FC003B"/>
<path d="M121.872 28.4246C121.872 29.4979 121.52 30.3625 120.816 31.0185C120.113 31.6744 119.057 32.0024 117.65 32.0024H115.128V37.3333H113.875V24.8289H117.65C119.045 24.8289 120.095 25.1569 120.798 25.8128C121.514 26.4687 121.872 27.3393 121.872 28.4246ZM117.65 30.929C119.606 30.929 120.584 30.0942 120.584 28.4246C120.584 27.5898 120.351 26.9577 119.886 26.5284C119.421 26.099 118.676 25.8844 117.65 25.8844H115.128V30.929H117.65ZM130.628 37.3333L127.533 32.1097H125.225V37.3333H123.973V24.8289H127.73C129.125 24.8289 130.18 25.1628 130.896 25.8307C131.623 26.4985 131.987 27.3751 131.987 28.4604C131.987 29.3667 131.725 30.1419 131.2 30.7859C130.687 31.418 129.924 31.8294 128.91 32.0203L132.13 37.3333H130.628ZM125.225 31.09H127.747C128.725 31.09 129.459 30.8515 129.948 30.3745C130.449 29.8974 130.699 29.2594 130.699 28.4604C130.699 27.6375 130.461 27.0054 129.984 26.5641C129.507 26.111 128.755 25.8844 127.73 25.8844H125.225V31.09ZM141.717 34.3637H136.028L134.937 37.3333H133.613L138.175 24.9899H139.588L144.132 37.3333H142.808L141.717 34.3637ZM141.341 33.3261L138.873 26.5641L136.404 33.3261H141.341ZM153.458 24.8289V25.8665H149.988V37.3333H148.736V25.8665H145.247V24.8289H153.458ZM162.681 34.3637H156.992L155.901 37.3333H154.577L159.139 24.9899H160.552L165.096 37.3333H163.772L162.681 34.3637ZM162.305 33.3261L159.836 26.5641L157.368 33.3261H162.305Z" fill="#FC003B"/>
</svg>
