<svg width="23" height="25" viewBox="0 0 23 25" fill="none" xmlns="http://www.w3.org/2000/svg">
<path d="M11.1037 0.366117C11.6321 0.854272 11.6321 1.64573 11.1037 2.13388L9.35452 3.75H11.5C17.7943 3.75 23 8.55964 23 14.375C23 20.1904 17.7943 25 11.5 25C5.20573 25 0 20.1904 0 14.375C0 13.6846 0.605732 13.125 1.35294 13.125C2.10015 13.125 2.70588 13.6846 2.70588 14.375C2.70588 18.8096 6.70015 22.5 11.5 22.5C16.2998 22.5 20.2941 18.8096 20.2941 14.375C20.2941 9.94036 16.2998 6.25 11.5 6.25H9.35452L11.1037 7.86612C11.6321 8.35427 11.6321 9.14573 11.1037 9.63388C10.5754 10.122 9.71874 10.122 9.19039 9.63388L5.13156 5.88388C4.60321 5.39573 4.60321 4.60427 5.13156 4.11612L9.19039 0.366117C9.71874 -0.122039 10.5754 -0.122039 11.1037 0.366117Z" fill="white"/>
</svg>
