<svg width="14" height="12" viewBox="0 0 14 12" fill="none" xmlns="http://www.w3.org/2000/svg">
<path fill-rule="evenodd" clip-rule="evenodd" d="M7.24424 0.410704C7.56968 0.0852667 8.09732 0.0852667 8.42275 0.410704L13.4228 5.41071C13.579 5.56699 13.6668 5.77895 13.6668 5.99996C13.6668 6.22097 13.579 6.43294 13.4228 6.58922L8.42275 11.5892C8.09732 11.9147 7.56968 11.9147 7.24424 11.5892C6.9188 11.2638 6.9188 10.7361 7.24424 10.4107L10.8217 6.83329L1.16683 6.83329C0.706592 6.83329 0.333496 6.4602 0.333496 5.99996C0.333496 5.53972 0.706592 5.16663 1.16683 5.16663L10.8217 5.16663L7.24424 1.58922C6.9188 1.26378 6.9188 0.736141 7.24424 0.410704Z" fill="black"/>
</svg>
