<svg width="23" height="23" viewBox="0 0 23 23" fill="none" xmlns="http://www.w3.org/2000/svg">
<path fill-rule="evenodd" clip-rule="evenodd" d="M9.08049 11.9158L5.8969 10.8546C2.56318 9.74334 0.896316 9.18772 0.896316 8.16664C0.896316 7.14557 2.56318 6.58995 5.8969 5.47871L17.9572 1.4586C20.3029 0.676701 21.4758 0.28575 22.0949 0.904856C22.714 1.52396 22.323 2.69681 21.5411 5.04252L17.521 17.1028C16.4098 20.4366 15.8542 22.1034 14.8331 22.1034C13.812 22.1034 13.2564 20.4366 12.1452 17.1028L11.084 13.9192L17.2515 7.75171C17.8047 7.19847 17.8047 6.30149 17.2515 5.74824C16.6982 5.195 15.8013 5.195 15.248 5.74824L9.08049 11.9158Z" fill="#FD003B"/>
</svg>
