<svg width="22" height="28" viewBox="0 0 22 28" fill="none" xmlns="http://www.w3.org/2000/svg">
<path d="M11 2.8C8.73439 2.8 6.875 4.6932 6.875 7V11.2H19.25C20.7688 11.2 22 12.4536 22 14V25.2C22 26.7464 20.7688 28 19.25 28H2.75C1.23122 28 0 26.7464 0 25.2V14C0 12.4536 1.23122 11.2 2.75 11.2H4.125V7C4.125 3.1468 7.21561 0 11 0C14.7844 0 17.875 3.1468 17.875 7C17.875 7.7732 17.2594 8.4 16.5 8.4C15.7406 8.4 15.125 7.7732 15.125 7C15.125 4.6932 13.2656 2.8 11 2.8ZM2.75 14V25.2H19.25V14H2.75Z" fill="#0D0D0D"/>
</svg>
