<svg width="21" height="15" viewBox="0 0 21 15" fill="none" xmlns="http://www.w3.org/2000/svg">
<path d="M14.6671 7.5C14.6671 9.80119 12.8016 11.6667 10.5004 11.6667C8.19926 11.6667 6.33378 9.80119 6.33378 7.5C6.33378 5.19881 8.19926 3.33333 10.5004 3.33333C12.8016 3.33333 14.6671 5.19881 14.6671 7.5Z" stroke="#31302E" stroke-width="2"/>
<path d="M19.0652 6.43314C19.4527 6.90619 19.6464 7.14272 19.6464 7.5C19.6464 7.85728 19.4527 8.0938 19.0652 8.56686C17.6031 10.3518 14.3183 13.75 10.5004 13.75C6.68261 13.75 3.39779 10.3518 1.93572 8.56686C1.54823 8.0938 1.35449 7.85728 1.35449 7.5C1.35449 7.14272 1.54823 6.90619 1.93572 6.43314C3.39779 4.64818 6.68261 1.25 10.5004 1.25C14.3183 1.25 17.6031 4.64818 19.0652 6.43314Z" stroke="#31302E" stroke-width="2"/>
</svg>
