<svg width="20" height="14" viewBox="0 0 20 14" fill="none" xmlns="http://www.w3.org/2000/svg">
<path d="M1.83366 9.33333V5.3877L8.4351 8.68842C9.42045 9.18109 10.5802 9.18109 11.5656 8.68842L18.167 5.38772V9.33333C18.167 10.4663 18.1645 11.1986 18.092 11.7382C18.0239 12.2442 17.9141 12.4028 17.8253 12.4916C17.7365 12.5804 17.5779 12.6903 17.0718 12.7583C16.5322 12.8309 15.7999 12.8333 14.667 12.8333H5.33366C4.20073 12.8333 3.4684 12.8309 2.92881 12.7583C2.42278 12.6903 2.26418 12.5804 2.17537 12.4916C2.08656 12.4028 1.97672 12.2442 1.90868 11.7382C1.83614 11.1986 1.83366 10.4663 1.83366 9.33333ZM18.1395 2.79272L10.5221 6.60142C10.1936 6.76564 9.80704 6.76564 9.4786 6.60142L1.86117 2.7927C1.8721 2.59558 1.88736 2.42038 1.90868 2.26182C1.97672 1.75579 2.08656 1.59719 2.17537 1.50838C2.26418 1.41956 2.42278 1.30972 2.92881 1.24169C3.4684 1.16914 4.20073 1.16667 5.33366 1.16667H14.667C15.7999 1.16667 16.5322 1.16914 17.0718 1.24169C17.5779 1.30972 17.7365 1.41956 17.8253 1.50838C17.9141 1.59719 18.0239 1.75579 18.092 2.26182C18.1133 2.42039 18.1286 2.5956 18.1395 2.79272Z" stroke="#31302E" stroke-width="2.33333"/>
</svg>
