<svg width="25" height="20" viewBox="0 0 25 20" fill="none" xmlns="http://www.w3.org/2000/svg">
<path d="M22.7273 7H15.5568L16.6364 2.43L16.6705 2.11C16.6705 1.7 16.4773 1.32 16.1705 1.05L14.9659 0L7.48864 6.59C7.06818 6.95 6.81818 7.45 6.81818 8V18C6.81818 19.1 7.84091 20 9.09091 20H19.3182C20.2614 20 21.0682 19.5 21.4091 18.78L24.8409 11.73C24.9432 11.5 25 11.26 25 11V9C25 7.9 23.9773 7 22.7273 7ZM22.7273 11L19.3182 18H9.09091V8L14.0227 3.66L12.7614 9H22.7273V11ZM0 8H4.54545V20H0V8Z" fill="#31302E"/>
</svg>
