<svg width="36" height="26" viewBox="0 0 36 26" fill="none" xmlns="http://www.w3.org/2000/svg">
<path d="M35.1 1.98C34.56 1.62 33.84 1.62 33.3 1.98L25.38 7.38V3.6C25.38 1.62 23.76 0 21.78 0H3.6C1.62 0 0 1.62 0 3.6V21.6C0 23.58 1.62 25.2 3.6 25.2H21.6C23.58 25.2 25.2 23.58 25.2 21.6V17.82L33.12 23.22C33.48 23.4 33.84 23.58 34.2 23.58C34.56 23.58 34.74 23.58 35.1 23.4C35.64 23.04 36 22.5 36 21.78V3.6C36 2.88 35.64 2.34 35.1 1.98ZM21.6 21.6H3.6V3.6H21.6V10.8V14.4V21.6ZM32.4 18.18L25.2 13.32V11.7L32.4 6.84V18.18Z" fill="white"/>
</svg>
