<svg width="81" height="19" viewBox="0 0 81 19" fill="none" xmlns="http://www.w3.org/2000/svg">
<path fill-rule="evenodd" clip-rule="evenodd" d="M9.58322 0.100098L0.609375 18.9417H11.3523L12.6841 15.9375H15.7284L17.0602 18.9417H28.8851V16.6488L29.9388 18.9417H36.0556L37.1093 16.6004V18.9417H61.702L64.6924 16.0156L67.4924 18.9417L80.1238 18.9659L71.1216 9.57349L80.1238 0.100098H67.6883L64.7774 2.97214L62.0655 0.100098H35.3119L33.0145 4.96327L30.6633 0.100098H19.9428V2.31493L18.7502 0.100098H9.58322ZM46.3118 2.77554H60.4341L64.7535 7.20224L69.2121 2.77554H73.5314L66.9686 9.57074L73.5314 16.2876H69.0162L64.6968 11.8095L60.2155 16.2876H46.3118V2.77554ZM49.7931 8.0433V5.57522V5.57285H58.605L62.45 9.51995L58.4347 13.4886H49.7931V10.7942H57.4975V8.0433H49.7931ZM11.6627 2.77554H16.8993L22.8517 15.5521V2.77554H28.5882L33.1857 11.9363L37.4228 2.77554H43.1307V16.2956H39.6575L39.6292 5.70136L34.5658 16.2956H31.4589L26.3671 5.70136V16.2956H19.2222L17.8677 13.2646H10.5495L9.1978 16.293H5.36962L11.6627 2.77554ZM11.797 10.4626L14.208 5.06306L16.6162 10.4626H11.797Z" fill="#1F72CD"/>
</svg>
