<svg width="70" height="28" viewBox="0 0 70 28" fill="none" xmlns="http://www.w3.org/2000/svg">
<path fill-rule="evenodd" clip-rule="evenodd" d="M9.56182 5.5315C10.8499 5.63459 12.138 4.91295 12.9431 3.99802C13.7347 3.05731 14.258 1.79444 14.1238 0.505798C12.9833 0.557344 11.5745 1.22744 10.7694 2.16815C10.0314 2.97999 9.40081 4.29441 9.56182 5.5315ZM24.8878 22.1293V2.03942H32.7371C36.7892 2.03942 39.6203 4.71979 39.6203 8.63726C39.6203 12.5547 36.7355 15.2609 32.6297 15.2609H28.1348V22.1293H24.8878ZM14.1143 5.77615C12.9796 5.71342 11.9441 6.10391 11.1078 6.41932L11.1077 6.41932C10.5695 6.6223 10.1138 6.79418 9.76703 6.79418C9.37792 6.79418 8.90333 6.6131 8.37048 6.4098C7.67228 6.14341 6.87403 5.83885 6.03694 5.85347C4.11822 5.87924 2.33368 6.92304 1.35419 8.58539C-0.658447 11.9101 0.830907 16.8327 2.77646 19.5388C3.72911 20.879 4.86961 22.3481 6.37238 22.2965C7.03351 22.2726 7.50909 22.0788 8.00127 21.8782C8.5679 21.6473 9.15653 21.4074 10.0756 21.4074C10.9629 21.4074 11.5258 21.641 12.0661 21.8653C12.5799 22.0785 13.0733 22.2833 13.8057 22.2708C15.3622 22.245 16.3417 20.9306 17.2943 19.5904C18.3224 18.152 18.7742 16.7482 18.8427 16.5352L18.8508 16.5105C18.8491 16.5089 18.8364 16.5034 18.814 16.4935L18.814 16.4935C18.4703 16.3424 15.8436 15.1875 15.8184 12.0905C15.7931 9.49101 17.9019 8.17395 18.2338 7.96663C18.254 7.95401 18.2676 7.9455 18.2738 7.94107C16.932 6.03388 14.8389 5.82769 14.1143 5.77615ZM45.5525 22.2838C47.592 22.2838 49.4839 21.2915 50.3426 19.7194H50.4097V22.1292H53.4153V12.1293C53.4153 9.22987 51.0001 7.36134 47.2834 7.36134C43.8351 7.36134 41.2857 9.25564 41.1918 11.8587H44.1169C44.3584 10.6216 45.5525 9.80976 47.1895 9.80976C49.1753 9.80976 50.289 10.6989 50.289 12.3355V13.4437L46.2368 13.6757C42.4665 13.8947 40.427 15.3767 40.427 17.954C40.427 20.557 42.5336 22.2838 45.5525 22.2838ZM46.4207 19.9C44.6899 19.9 43.5896 19.1011 43.5896 17.8769C43.5896 16.614 44.6496 15.8795 46.6757 15.7635L50.285 15.5444V16.6784C50.285 18.5598 48.6212 19.9 46.4207 19.9ZM63.3872 22.915C62.0857 26.433 60.5963 27.5928 57.4298 27.5928C57.1882 27.5928 56.3832 27.567 56.1953 27.5155V25.1057C56.3966 25.1315 56.8931 25.1573 57.148 25.1573C58.5837 25.1573 59.3887 24.5774 59.8852 23.0697L60.1804 22.1805L54.6791 7.55445H58.0738L61.8978 19.4228H61.9649L65.7889 7.55445H69.0897L63.3872 22.915ZM28.1321 4.66797H31.8756C34.6933 4.66797 36.3034 6.11125 36.3034 8.64987C36.3034 11.1885 34.6933 12.6447 31.8622 12.6447H28.1321V4.66797Z" fill="black"/>
</svg>
