<svg width="70" height="28" viewBox="0 0 70 28" fill="none" xmlns="http://www.w3.org/2000/svg">
<path fill-rule="evenodd" clip-rule="evenodd" d="M32.3005 21.2762V13.4217H36.5732C38.3241 13.4217 39.8019 12.8651 41.0066 11.7673L41.2957 11.489C43.4963 9.21611 43.3518 5.6754 41.0066 3.57262C39.834 2.45938 38.2277 1.85638 36.5732 1.8873H29.7144V21.2762H32.3005ZM32.3008 11.0406V4.26843H36.6385C37.5703 4.26843 38.4539 4.60859 39.1126 5.22705C40.5103 6.52583 40.5424 8.69045 39.1929 10.0356C38.5342 10.7005 37.6024 11.0715 36.6385 11.0406H32.3008ZM53.3554 9.0462C52.2471 8.07211 50.7372 7.57734 48.8257 7.57734C46.3681 7.57734 44.5209 8.44319 43.3001 10.1594L45.581 11.5355C46.4163 10.3604 47.5567 9.77289 49.0024 9.77289C49.918 9.77289 50.8014 10.0976 51.4922 10.6851C52.1668 11.2417 52.5523 12.0458 52.5523 12.8961V13.4682C51.5564 12.9425 50.3035 12.6642 48.7615 12.6642C46.9624 12.6642 45.5168 13.0662 44.4405 13.8857C43.3643 14.7051 42.8182 15.7875 42.8182 17.1635C42.7861 18.4159 43.3483 19.6065 44.3442 20.4105C45.3561 21.2763 46.6412 21.7093 48.1511 21.7093C49.9341 21.7093 51.3476 20.9516 52.4238 19.4364H52.5362V21.2763H55.0099V13.0971C55.0099 11.3809 54.4638 10.0203 53.3554 9.0462ZM46.3364 18.8335C45.8062 18.4625 45.4849 17.8595 45.4849 17.2101C45.4849 16.4834 45.8384 15.8804 46.5292 15.4011C47.2361 14.9217 48.1197 14.6744 49.1639 14.6744C50.6098 14.6589 51.7344 14.9681 52.5377 15.5866C52.5377 16.638 52.1039 17.5502 51.2524 18.3233C50.4813 19.0655 49.437 19.4829 48.3446 19.4829C47.6216 19.4984 46.9147 19.2665 46.3364 18.8335ZM60.5709 27.1054L69.2128 8.01033H66.4018L62.4021 17.5347H62.3539L58.2579 8.01033H55.4469L61.1171 20.426L57.9045 27.1054H60.5709Z" fill="#3C4043"/>
<path d="M23.368 11.721C23.368 10.9634 23.3038 10.2058 23.1753 9.46362H12.2686V13.7465H18.517C18.26 15.1226 17.4247 16.3595 16.204 17.1326V19.9157H19.9306C22.1151 17.983 23.368 15.1226 23.368 11.721Z" fill="#4285F4"/>
<path d="M12.2718 22.606C15.388 22.606 18.0223 21.6164 19.9338 19.9156L16.2072 17.1325C15.1631 17.8129 13.8299 18.1994 12.2718 18.1994C9.25198 18.1994 6.69798 16.2358 5.78239 13.6073H1.94336V16.4832C3.90303 20.2403 7.90269 22.606 12.2718 22.606Z" fill="#34A853"/>
<path d="M5.78187 13.6074C5.29991 12.2313 5.29991 10.7315 5.78187 9.33995V6.47955H1.94223C0.287486 9.61826 0.287486 13.3291 1.94223 16.4678L5.78187 13.6074Z" fill="#FBBC04"/>
<path d="M12.2718 4.74793C13.9263 4.71701 15.5165 5.32001 16.7052 6.41779L20.0141 3.23269C17.9099 1.34638 15.1471 0.310448 12.2718 0.341371C7.90269 0.341371 3.90303 2.72246 1.94336 6.47963L5.78239 9.35549C6.69798 6.71156 9.25197 4.74793 12.2718 4.74793Z" fill="#EA4335"/>
</svg>
