<svg width="63" height="36" viewBox="0 0 63 36" fill="none" xmlns="http://www.w3.org/2000/svg">
<path fill-rule="evenodd" clip-rule="evenodd" d="M31.3409 31.6082C28.0755 34.2817 23.8399 35.8956 19.2114 35.8956C8.88387 35.8956 0.511719 27.8601 0.511719 17.9478C0.511719 8.03551 8.88387 0 19.2114 0C23.8399 0 28.0755 1.61392 31.3409 4.2874C34.6062 1.61392 38.8419 0 43.4703 0C53.7979 0 62.17 8.03551 62.17 17.9478C62.17 27.8601 53.7979 35.8956 43.4703 35.8956C38.8419 35.8956 34.6062 34.2817 31.3409 31.6082Z" fill="#ED0006"/>
<path fill-rule="evenodd" clip-rule="evenodd" d="M31.3481 31.6082C35.3689 28.3163 37.9184 23.4178 37.9184 17.9478C37.9184 12.4778 35.3689 7.57936 31.3481 4.2874C34.6135 1.61392 38.8492 0 43.4776 0C53.8051 0 62.1773 8.03551 62.1773 17.9478C62.1773 27.8601 53.8051 35.8956 43.4776 35.8956C38.8492 35.8956 34.6135 34.2817 31.3481 31.6082Z" fill="#F9A000"/>
<path fill-rule="evenodd" clip-rule="evenodd" d="M31.3393 31.6083C35.3601 28.3163 37.9096 23.4179 37.9096 17.9479C37.9096 12.4779 35.3601 7.57944 31.3393 4.28748C27.3186 7.57944 24.769 12.4779 24.769 17.9479C24.769 23.4179 27.3186 28.3163 31.3393 31.6083Z" fill="#FF5E00"/>
</svg>
