<svg width="56" height="46" viewBox="0 0 56 46" fill="none" xmlns="http://www.w3.org/2000/svg">
<path fill-rule="evenodd" clip-rule="evenodd" d="M7.21706 31.6266H2.95409C2.66237 31.6266 2.41426 31.8278 2.36877 32.1009L0.644609 42.4725C0.610339 42.6773 0.777389 42.8617 0.996187 42.8617H3.03137C3.32309 42.8617 3.5712 42.6606 3.61669 42.3869L4.08172 39.5895C4.12657 39.3156 4.37528 39.1147 4.6664 39.1147H6.01591C8.82408 39.1147 10.4447 37.8254 10.8681 35.2705C11.0588 34.1528 10.8762 33.2745 10.3244 32.6593C9.7186 31.9841 8.6438 31.6266 7.21706 31.6266ZM7.70889 35.4147C7.47581 36.8661 6.30703 36.8661 5.17692 36.8661H4.53362L4.98492 34.1555C5.01172 33.9918 5.16131 33.8711 5.33586 33.8711H5.6307C6.40051 33.8711 7.12678 33.8711 7.50207 34.2874C7.72562 34.5359 7.79427 34.9049 7.70889 35.4147ZM19.9601 35.3682H17.9187C17.7448 35.3682 17.5945 35.4889 17.5676 35.6528L17.4774 36.1945L17.3346 35.9982C16.8926 35.3896 15.9073 35.1862 14.9236 35.1862C12.6675 35.1862 10.7409 36.8072 10.3656 39.0813C10.1706 40.2155 10.4478 41.3001 11.126 42.0565C11.7482 42.752 12.6384 43.0418 13.6974 43.0418C15.515 43.0418 16.5231 41.9328 16.5231 41.9328L16.432 42.4712C16.3976 42.677 16.5647 42.8614 16.7822 42.8614H18.6211C18.9136 42.8614 19.1602 42.6603 19.2064 42.3866L20.3098 35.7574C20.3447 35.5535 20.1782 35.3682 19.9601 35.3682ZM17.1145 39.1379C16.9175 40.2445 15.9918 40.9872 14.8114 40.9872C14.2186 40.9872 13.7447 40.8069 13.4406 40.4651C13.1389 40.1257 13.0241 39.6424 13.1201 39.1043C13.3042 38.0071 14.2454 37.2402 15.4079 37.2402C15.9875 37.2402 16.4588 37.4228 16.7692 37.7676C17.0801 38.116 17.2036 38.6021 17.1145 39.1379ZM28.781 35.3679H30.8326C31.1199 35.3679 31.2875 35.6736 31.1242 35.8972L24.3012 45.2414C24.1907 45.3928 24.0087 45.4828 23.8143 45.4828H21.7653C21.4769 45.4828 21.3084 45.1746 21.4754 44.9505L23.6 42.1052L21.3404 35.8138C21.2623 35.5951 21.4325 35.3679 21.6776 35.3679H23.6934C23.9553 35.3679 24.1864 35.531 24.262 35.7689L25.4611 39.5687L28.2906 35.6145C28.4014 35.4602 28.5854 35.3679 28.781 35.3679Z" fill="#253B80"/>
<path fill-rule="evenodd" clip-rule="evenodd" d="M51.0242 42.4725L52.7737 31.9112C52.8005 31.7473 52.9502 31.6266 53.1242 31.626H55.0938C55.3113 31.626 55.4783 31.811 55.444 32.0158L53.7187 42.3868C53.6737 42.6605 53.4256 42.8617 53.1334 42.8617H51.3744C51.1569 42.8617 50.9899 42.6772 51.0242 42.4725ZM37.6254 31.6266H33.3617C33.0706 31.6266 32.8225 31.8277 32.777 32.1009L31.0528 42.4725C31.0185 42.6772 31.1855 42.8617 31.4033 42.8617H33.591C33.7944 42.8617 33.9683 42.721 34 42.5294L34.4893 39.5895C34.5343 39.3155 34.7829 39.1146 35.074 39.1146H36.4228C39.2316 39.1146 40.8519 37.8253 41.2756 35.2704C41.4669 34.1527 41.2831 33.2744 40.7316 32.6592C40.1261 31.984 39.0522 31.6266 37.6254 31.6266ZM38.1173 35.4147C37.8848 36.866 36.7159 36.866 35.5851 36.866H34.9424L35.3945 34.1554C35.4213 33.9918 35.5696 33.8711 35.7447 33.8711H36.0395C36.8088 33.8711 37.5357 33.8711 37.9107 34.2874C38.1346 34.5359 38.2026 34.9048 38.1173 35.4147ZM50.3674 35.3681H48.3274C48.152 35.3681 48.0031 35.4888 47.9769 35.6528L47.8866 36.1944L47.7432 35.9982C47.3013 35.3895 46.3165 35.1861 45.3328 35.1861C43.0768 35.1861 41.1507 36.8072 40.7754 39.0812C40.581 40.2154 40.8571 41.3 41.5352 42.0565C42.1586 42.7519 43.0476 43.0417 44.1066 43.0417C45.9242 43.0417 46.9321 41.9328 46.9321 41.9328L46.8412 42.4711C46.8069 42.6769 46.9739 42.8614 47.1928 42.8614H49.0309C49.322 42.8614 49.57 42.6602 49.6156 42.3865L50.7196 35.7573C50.7533 35.5534 50.5863 35.3681 50.3674 35.3681ZM47.522 39.1379C47.3261 40.2444 46.3993 40.9872 45.2186 40.9872C44.627 40.9872 44.1522 40.8068 43.8478 40.465C43.5461 40.1256 43.4327 39.6423 43.5276 39.1042C43.7125 38.007 44.6526 37.2402 45.8151 37.2402C46.3949 37.2402 46.866 37.4227 47.1767 37.7675C47.4888 38.1159 47.6123 38.602 47.522 39.1379Z" fill="#179BD7"/>
<path d="M22.9937 27.9163L23.5178 24.7579L22.3504 24.7322H16.7759L20.6499 1.42619C20.6617 1.35582 20.701 1.29022 20.7581 1.24364C20.8152 1.19706 20.8885 1.17139 20.9646 1.17139H30.3642C33.4847 1.17139 35.6381 1.78748 36.7625 3.00349C37.2895 3.57396 37.6253 4.17008 37.7877 4.8261C37.9579 5.51448 37.9611 6.33687 37.7946 7.33993L37.7825 7.41314V8.05584L38.3098 8.33919C38.7538 8.5626 39.1063 8.81835 39.3768 9.1112C39.828 9.59893 40.1196 10.2188 40.2428 10.9538C40.37 11.7096 40.3279 12.609 40.1196 13.6273C39.8791 14.7987 39.4902 15.8188 38.9652 16.6536C38.482 17.4228 37.8667 18.0606 37.1364 18.5551C36.4389 19.0248 35.6101 19.3814 34.6732 19.6096C33.7651 19.8338 32.7301 19.9471 31.5947 19.9471H30.8632C30.3402 19.9471 29.8319 20.1258 29.4333 20.4463C29.0335 20.7734 28.7687 21.22 28.6876 21.7088L28.6325 21.9932L27.7066 27.5597L27.6644 27.7641C27.6535 27.829 27.6344 27.8613 27.6065 27.8832C27.5814 27.9029 27.5453 27.9163 27.5101 27.9163H22.9937Z" fill="#253B80"/>
<path d="M38.8071 7.48761C38.7791 7.65779 38.7471 7.83177 38.711 8.01051C37.4712 14.0488 33.2305 16.1348 27.8141 16.1348H25.0564C24.3941 16.1348 23.8359 16.5911 23.7326 17.211L22.3206 25.7071L21.9208 28.1153C21.8536 28.5223 22.1845 28.8893 22.6172 28.8893H27.5086C28.0878 28.8893 28.5797 28.49 28.6708 27.9481L28.719 27.7121L29.64 22.1673L29.6992 21.8632C29.7892 21.3194 30.2822 20.9201 30.8614 20.9201H31.5929C36.3318 20.9201 40.0417 19.0946 41.126 13.8121C41.5789 11.6053 41.3444 9.76279 40.1458 8.46688C39.7832 8.07612 39.3332 7.75191 38.8071 7.48761Z" fill="#179BD7"/>
<path d="M37.5083 6.99733C37.319 6.94503 37.1235 6.89749 36.923 6.85471C36.7216 6.81289 36.5151 6.77581 36.3028 6.74348C35.5591 6.62939 34.7445 6.5752 33.8716 6.5752H26.5043C26.3229 6.5752 26.1507 6.61417 25.9963 6.68453C25.6565 6.83949 25.4041 7.14471 25.343 7.51834L23.7755 16.9366L23.7305 17.2114C23.8337 16.5915 24.3919 16.1351 25.0542 16.1351H27.8119C33.2284 16.1351 37.4693 14.0482 38.7088 8.01084C38.7458 7.8321 38.7769 7.65811 38.8049 7.48794C38.4913 7.3301 38.1515 7.19509 37.7858 7.08004C37.6958 7.05152 37.6026 7.02396 37.5083 6.99733Z" fill="#222D65"/>
<path d="M25.3435 7.5181C25.4046 7.14443 25.6573 6.83925 25.9968 6.68521C26.1523 6.61485 26.3237 6.57588 26.5048 6.57588H33.8724C34.7453 6.57588 35.5599 6.63007 36.3033 6.74417C36.5159 6.77649 36.7224 6.81357 36.9237 6.85539C37.1242 6.8982 37.3195 6.94574 37.509 6.99801C37.6031 7.02464 37.6963 7.0522 37.7874 7.07979C38.1532 7.19482 38.493 7.33078 38.8065 7.48766C39.1755 5.25622 38.8037 3.73691 37.5321 2.36115C36.1302 0.846597 33.5998 0.198181 30.3621 0.198181H20.9623C20.3009 0.198181 19.7369 0.654524 19.6345 1.27538L15.7195 24.821C15.6422 25.2868 16.021 25.7072 16.516 25.7072H22.3192L23.7763 16.9363L25.3435 7.5181Z" fill="#253B80"/>
</svg>
