<svg width="70" height="25" viewBox="0 0 70 25" fill="none" xmlns="http://www.w3.org/2000/svg">
<path d="M28.8477 22.6624V9.24583C28.8477 8.65889 28.9695 8.07769 29.2063 7.53544C29.4431 6.99319 29.7901 6.50051 30.2277 6.08554C30.6652 5.67057 31.1846 5.34144 31.7561 5.11694C32.3277 4.89245 32.9404 4.77699 33.559 4.77716H37.7295C38.9755 4.77961 40.1696 5.25094 41.0497 6.08772C41.9299 6.92451 42.4242 8.05839 42.4242 9.24056V12.0961C42.4242 13.2816 41.9278 14.4186 41.0442 15.2569C40.1607 16.0952 38.9624 16.5661 37.7128 16.5661H31.8143" stroke="#939598" stroke-width="1.03579" stroke-linecap="round" stroke-linejoin="round"/>
<path d="M43.5947 4.77478H45.402C45.9148 4.77478 46.4067 4.96808 46.7693 5.31215C47.132 5.65622 47.3357 6.12288 47.3357 6.60947V16.6336" stroke="#939598" stroke-width="1.03579" stroke-linecap="round" stroke-linejoin="round"/>
<path d="M46.9465 3.22224L46.1263 2.44272C46.0778 2.39678 46.0392 2.3422 46.013 2.28211C45.9867 2.22202 45.9731 2.1576 45.9731 2.09254C45.9731 2.02748 45.9867 1.96306 46.013 1.90297C46.0392 1.84288 46.0778 1.7883 46.1263 1.74235L46.9465 0.964161C46.9949 0.918099 47.0525 0.881551 47.1158 0.856616C47.1791 0.831681 47.247 0.818848 47.3156 0.818848C47.3842 0.818848 47.4521 0.831681 47.5154 0.856616C47.5787 0.881551 47.6363 0.918099 47.6847 0.964161L48.5063 1.74235C48.5548 1.7883 48.5934 1.84288 48.6196 1.90297C48.6459 1.96306 48.6594 2.02748 48.6594 2.09254C48.6594 2.1576 48.6459 2.22202 48.6196 2.28211C48.5934 2.3422 48.5548 2.39678 48.5063 2.44272L47.6847 3.22224C47.6363 3.2683 47.5787 3.30484 47.5154 3.32978C47.4521 3.35471 47.3842 3.36755 47.3156 3.36755C47.247 3.36755 47.1791 3.35471 47.1158 3.32978C47.0525 3.30484 46.9949 3.2683 46.9465 3.22224" fill="#32BCAD"/>
<path d="M50.8125 4.76727H52.6086C53.5325 4.76742 54.4186 5.11565 55.072 5.7354L59.2731 9.72C59.4023 9.84303 59.5558 9.94065 59.7248 10.0073C59.8938 10.0739 60.0751 10.1082 60.2581 10.1082C60.4411 10.1082 60.6223 10.0739 60.7913 10.0073C60.9604 9.94065 61.1139 9.84303 61.243 9.72L65.433 5.74991C65.7565 5.44292 66.1405 5.19941 66.5632 5.03329C66.9859 4.86718 67.4389 4.78171 67.8964 4.78178H69.3561" stroke="#939598" stroke-width="1.03579" stroke-linecap="round" stroke-linejoin="round"/>
<path d="M50.8125 16.544H52.6086C53.5325 16.5438 54.4186 16.1956 55.072 15.5759L59.2731 11.5926C59.4023 11.4695 59.5558 11.3719 59.7248 11.3053C59.8938 11.2387 60.0751 11.2044 60.2581 11.2044C60.4411 11.2044 60.6223 11.2387 60.7913 11.3053C60.9604 11.3719 61.1139 11.4695 61.243 11.5926L65.433 15.5613C65.7565 15.8683 66.1405 16.1118 66.5632 16.278C66.9859 16.4441 67.4389 16.5295 67.8964 16.5295H69.3561" stroke="#939598" stroke-width="1.03579" stroke-linecap="round" stroke-linejoin="round"/>
<path d="M18.1378 19.0896C17.6943 19.0908 17.255 19.0086 16.8453 18.8476C16.4355 18.6867 16.0636 18.4501 15.7509 18.1518L12.3046 14.89C12.1829 14.7791 12.0208 14.7172 11.8521 14.7172C11.6834 14.7172 11.5213 14.7791 11.3996 14.89L7.94083 18.1702C7.62814 18.4686 7.25615 18.7051 6.84642 18.8661C6.43668 19.0271 5.99737 19.1093 5.5539 19.108H4.87549L9.23927 23.2496C9.89408 23.8703 10.7819 24.219 11.7075 24.219C12.6332 24.219 13.521 23.8703 14.1758 23.2496L18.5521 19.0961L18.1378 19.0896Z" fill="#32BCAD"/>
<path d="M5.55502 7.52502C5.99844 7.52404 6.43768 7.6064 6.84737 7.76736C7.25706 7.92832 7.62907 8.16468 7.94195 8.46281L11.4007 11.7444C11.5209 11.8581 11.6836 11.9219 11.8532 11.9219C12.0229 11.9219 12.1856 11.8581 12.3057 11.7444L15.752 8.47468C16.0649 8.17655 16.4369 7.94019 16.8466 7.77923C17.2563 7.61827 17.6955 7.53591 18.1389 7.53689H18.556L14.1797 3.38478C13.8556 3.0771 13.4709 2.83302 13.0473 2.66649C12.6238 2.49996 12.1699 2.41425 11.7114 2.41425C11.253 2.41425 10.799 2.49996 10.3755 2.66649C9.95199 2.83302 9.56722 3.0771 9.24317 3.38478L4.87939 7.52502H5.55502Z" fill="#32BCAD"/>
<path d="M22.1733 10.9715L19.5319 8.46541C19.4722 8.48808 19.4086 8.50015 19.3443 8.50102H18.1418C17.5158 8.50349 16.9162 8.74052 16.4735 9.16051L13.0217 12.4236C12.8683 12.5694 12.686 12.685 12.4854 12.7638C12.2848 12.8425 12.0697 12.8829 11.8526 12.8826C11.4139 12.8834 10.9928 12.7187 10.6821 12.425L7.22329 9.14336C6.78066 8.72338 6.18106 8.48634 5.55507 8.48388H4.07731C4.01629 8.4828 3.95599 8.47119 3.89937 8.44958L1.24412 10.9688C0.919832 11.2763 0.662579 11.6413 0.48706 12.0432C0.311541 12.445 0.221191 12.8757 0.221191 13.3106C0.221191 13.7456 0.311541 14.1763 0.48706 14.5781C0.662579 14.98 0.919832 15.345 1.24412 15.6525L3.89937 18.1717C3.95599 18.1501 4.01629 18.1385 4.07731 18.1374H5.55507C6.18097 18.1345 6.78041 17.8976 7.22329 17.4779L10.6821 14.1963C10.9973 13.911 11.4162 13.7518 11.8519 13.7518C12.2876 13.7518 12.7065 13.911 13.0217 14.1963L16.468 17.4661C16.9109 17.8857 17.5103 18.1227 18.1362 18.1255H19.3387C19.4032 18.1262 19.4669 18.1387 19.5264 18.1625L22.1677 15.6564C22.822 15.0352 23.1895 14.1928 23.1895 13.3146C23.1895 12.4364 22.822 11.594 22.1677 10.9728" fill="#32BCAD"/>
<path d="M32.4394 21.5218C32.2204 21.5311 32.0031 21.5625 31.7911 21.6154V22.4332C31.9533 22.4873 32.1241 22.5145 32.2961 22.5137C32.7287 22.5137 32.9332 22.3752 32.9332 22.0138C32.9332 21.6748 32.7649 21.5218 32.4394 21.5218V21.5218ZM31.645 23.0399V21.4242H31.7647L31.7772 21.4941C31.9978 21.4381 32.2239 21.4037 32.4519 21.3912C32.6098 21.3809 32.7665 21.4239 32.8943 21.5126C32.9642 21.577 33.0179 21.6555 33.0516 21.7422C33.0853 21.8289 33.0981 21.9217 33.089 22.0138C33.0973 22.1164 33.0757 22.2193 33.0267 22.3111C32.9776 22.403 32.903 22.4803 32.8108 22.5348C32.6548 22.6077 32.4825 22.6439 32.3086 22.6403C32.1327 22.6393 31.9579 22.614 31.7897 22.5651V23.0399H31.645Z" fill="#939598"/>
<path d="M34.1748 21.5177C33.7425 21.5177 33.5506 21.6496 33.5506 22.007C33.5506 22.3645 33.7411 22.5135 34.1748 22.5135C34.6085 22.5135 34.7976 22.3816 34.7976 22.0255C34.7976 21.6694 34.6072 21.5177 34.1748 21.5177V21.5177ZM34.7309 22.5135C34.5645 22.6112 34.3701 22.6573 34.1748 22.6454C33.9796 22.6565 33.7855 22.6104 33.6187 22.5135C33.5409 22.4548 33.4798 22.3785 33.4409 22.2917C33.4021 22.2048 33.3868 22.1102 33.3963 22.0162C33.3874 21.9222 33.403 21.8275 33.4418 21.7406C33.4806 21.6536 33.5414 21.5771 33.6187 21.5177C33.7852 21.4201 33.9795 21.374 34.1748 21.3858C34.3701 21.3743 34.5643 21.4203 34.7309 21.5177C34.8082 21.5765 34.869 21.6526 34.9078 21.7391C34.9466 21.8256 34.9622 21.9199 34.9533 22.0136C34.9628 22.1079 34.9475 22.203 34.9087 22.2902C34.8698 22.3775 34.8087 22.4542 34.7309 22.5135" fill="#939598"/>
<path d="M36.7665 22.6073L36.2855 21.626H36.2757L35.8017 22.6073H35.6779L35.1636 21.4202H35.3248L35.7516 22.4134H35.7613L36.2257 21.4202H36.3647L36.8415 22.4134H36.8513L37.2683 21.4202H37.424L36.911 22.6073H36.7665Z" fill="#939598"/>
<path d="M38.3497 21.5151C37.949 21.5151 37.8141 21.684 37.7932 21.928H38.9145C38.9034 21.6576 38.7573 21.5151 38.358 21.5151H38.3497ZM38.358 22.6402C38.1738 22.6588 37.9889 22.6118 37.8392 22.5083C37.7673 22.4459 37.7112 22.3688 37.6751 22.283C37.6389 22.1971 37.6237 22.1046 37.6305 22.0124C37.6251 21.9167 37.6432 21.821 37.6836 21.7331C37.7239 21.6452 37.7853 21.5674 37.8628 21.5059C38.0084 21.4198 38.1784 21.3784 38.3497 21.3872C38.5246 21.3769 38.6986 21.4169 38.8491 21.5019C39.03 21.6167 39.0647 21.8185 39.0647 22.048H37.7835C37.7835 22.2907 37.8725 22.507 38.3566 22.507C38.5735 22.5021 38.7895 22.4791 39.0021 22.4384V22.5624C38.786 22.6052 38.5663 22.6299 38.3455 22.6363" fill="#939598"/>
<path d="M39.4805 22.6074V21.4203H39.6001L39.6126 21.4902C39.8127 21.4279 40.0212 21.3932 40.2317 21.3873H40.2498V21.5192H40.215C40.0151 21.5234 39.8169 21.5549 39.6265 21.6129V22.6047L39.4805 22.6074Z" fill="#939598"/>
<path d="M41.0973 21.5152C40.6966 21.5152 40.5603 21.6841 40.5408 21.9281H41.6635C41.651 21.6577 41.5049 21.5152 41.107 21.5152H41.0973ZM41.107 22.6403C40.9228 22.6585 40.738 22.6115 40.5881 22.5084C40.5193 22.4452 40.466 22.3683 40.4324 22.2832C40.3987 22.1981 40.3854 22.107 40.3934 22.0164C40.388 21.9207 40.4061 21.8251 40.4465 21.7372C40.4868 21.6493 40.5481 21.5715 40.6257 21.51C40.7713 21.4239 40.9413 21.3824 41.1126 21.3913C41.287 21.3811 41.4606 21.4211 41.6106 21.506C41.7915 21.6208 41.8262 21.8226 41.8262 22.0521H40.5464C40.5464 22.2947 40.6354 22.5111 41.1196 22.5111C41.3364 22.5061 41.5524 22.4831 41.765 22.4425V22.5665C41.5484 22.6092 41.3282 22.6339 41.107 22.6403" fill="#939598"/>
<path d="M43.4058 21.597C43.244 21.5434 43.0736 21.5166 42.9022 21.5179C42.4696 21.5179 42.2637 21.6563 42.2637 22.0164C42.2637 22.3765 42.432 22.5084 42.7589 22.5084C42.9772 22.4987 43.1939 22.4682 43.4058 22.4174V21.597ZM43.4336 22.6073L43.4211 22.5361C43.2005 22.5924 42.9744 22.6273 42.7464 22.6403C42.5881 22.6518 42.4308 22.6082 42.304 22.5176C42.2336 22.4535 42.1794 22.3751 42.1455 22.2883C42.1115 22.2015 42.0987 22.1086 42.1079 22.0164C42.0997 21.9141 42.1213 21.8117 42.1703 21.7203C42.2194 21.6288 42.294 21.552 42.3861 21.4981C42.5425 21.4234 42.716 21.3866 42.8911 21.3912C43.066 21.3932 43.2397 21.4185 43.4072 21.4664V20.9243H43.5533V22.6073H43.4336Z" fill="#939598"/>
<path d="M45.6971 21.5218C45.4781 21.5311 45.2608 21.5625 45.0489 21.6155V22.4306C45.2106 22.4866 45.3816 22.5147 45.5538 22.5137C45.9865 22.5137 46.191 22.3752 46.191 22.0138C46.191 21.6748 46.0227 21.5218 45.6971 21.5218V21.5218ZM46.0699 22.5348C45.9139 22.6077 45.7417 22.6439 45.5678 22.6403C45.3784 22.6384 45.1906 22.6082 45.0113 22.5506V22.6073H44.9111V20.9243H45.0502V21.4849C45.2667 21.4325 45.488 21.3998 45.711 21.3873C45.869 21.3769 46.0257 21.4199 46.1534 21.5086C46.2233 21.5731 46.2771 21.6515 46.3108 21.7383C46.3445 21.825 46.3573 21.9178 46.3482 22.0098C46.3565 22.1125 46.3349 22.2153 46.2858 22.3072C46.2368 22.399 46.1621 22.4764 46.0699 22.5308" fill="#939598"/>
<path d="M46.5336 23.0677V22.9358C46.6046 22.9358 46.6727 22.9476 46.7186 22.9476C46.8032 22.9542 46.8876 22.9337 46.9584 22.8895C47.0293 22.8453 47.0825 22.7799 47.1095 22.7036L47.1568 22.61L46.5044 21.4229H46.6727L47.2292 22.4438H47.2389L47.7703 21.4229H47.9359L47.2403 22.7511C47.1109 22.9925 46.9732 23.0716 46.7186 23.0716C46.6569 23.0743 46.5951 23.073 46.5336 23.0677Z" fill="#939598"/>
<path d="M49.9396 21.9318H49.4544V22.3472H49.9409C50.2746 22.3472 50.4011 22.3116 50.4011 22.1375C50.4011 21.9634 50.2273 21.9318 49.9396 21.9318V21.9318ZM49.8506 21.2591H49.4544V21.6812H49.852C50.1814 21.6812 50.3121 21.6442 50.3121 21.4675C50.3121 21.2907 50.1467 21.2591 49.8506 21.2591V21.2591ZM50.6013 22.495C50.4233 22.6018 50.2079 22.6071 49.8158 22.6071H49.0776V21.0019H49.7977C50.137 21.0019 50.3441 21.0019 50.5165 21.1048C50.5739 21.1373 50.6207 21.1844 50.6514 21.2408C50.6821 21.2972 50.6956 21.3607 50.6903 21.424C50.6945 21.5032 50.6705 21.5814 50.622 21.6461C50.5736 21.7107 50.5036 21.7579 50.4233 21.7801V21.7893C50.6402 21.8355 50.7806 21.941 50.7806 22.1692C50.7859 22.234 50.7719 22.2989 50.7402 22.3565C50.7085 22.4141 50.6603 22.4621 50.6013 22.495" fill="#939598"/>
<path d="M52.2618 22.1098C52.1228 22.098 51.9685 22.0914 51.8128 22.0914C51.5584 22.0914 51.4694 22.1402 51.4694 22.251C51.4694 22.3618 51.5431 22.4092 51.7377 22.4092C51.9145 22.4034 52.0901 22.38 52.2618 22.3393V22.1098ZM52.3355 22.6071L52.3257 22.5359C52.1051 22.5953 51.8779 22.6303 51.6487 22.6401C51.5167 22.6484 51.3852 22.618 51.272 22.553C51.2257 22.5199 51.1889 22.4764 51.1646 22.4265C51.1404 22.3765 51.1295 22.3217 51.133 22.2668C51.1298 22.1995 51.1481 22.1329 51.1856 22.0757C51.223 22.0185 51.2779 21.9734 51.3429 21.9463C51.4924 21.8932 51.652 21.8707 51.8114 21.8803C51.942 21.8803 52.1172 21.8869 52.2632 21.8962V21.8803C52.2632 21.6957 52.1353 21.635 51.7836 21.635C51.6445 21.635 51.4833 21.6416 51.3248 21.6561V21.4161C51.5 21.4029 51.6974 21.3936 51.86 21.3936C52.0608 21.3769 52.2624 21.4149 52.4411 21.5031C52.5801 21.5994 52.6107 21.7326 52.6107 21.9094V22.6097L52.3355 22.6071Z" fill="#939598"/>
<path d="M54.2337 22.6072V21.9477C54.2337 21.7327 54.1169 21.6549 53.9098 21.6549C53.7378 21.6619 53.5671 21.6871 53.401 21.7301V22.6019H53.0576V21.4149H53.3357L53.3482 21.4887C53.5651 21.429 53.7885 21.3931 54.0141 21.3819C54.1677 21.3706 54.3203 21.4138 54.4422 21.5032C54.4928 21.5514 54.5315 21.6097 54.5556 21.6738C54.5796 21.7378 54.5884 21.8062 54.5813 21.8739V22.598L54.2337 22.6072Z" fill="#939598"/>
<path d="M55.5661 22.64C55.4004 22.6522 55.2356 22.6078 55.1015 22.5147C55.0304 22.451 54.9757 22.3727 54.9415 22.2858C54.9072 22.1989 54.8944 22.1058 54.904 22.0135C54.8973 21.9157 54.9173 21.8179 54.9618 21.7295C55.0064 21.641 55.0741 21.5649 55.1585 21.5083C55.3254 21.4196 55.5158 21.3788 55.7066 21.3909C55.8458 21.3909 55.9918 21.4002 56.1462 21.4134V21.6666C56.021 21.656 55.868 21.6455 55.7484 21.6455C55.4173 21.6455 55.2615 21.7444 55.2615 22.0161C55.2615 22.2878 55.3783 22.3815 55.6496 22.3815C55.826 22.3763 56.0015 22.356 56.1741 22.3208V22.5648C55.9744 22.6083 55.7709 22.6335 55.5661 22.64Z" fill="#939598"/>
<path d="M57.1986 21.6391C56.8678 21.6391 56.7218 21.738 56.7218 22.0071C56.7218 22.2761 56.8608 22.3909 57.1986 22.3909C57.5364 22.3909 57.6699 22.2946 57.6699 22.0255C57.6699 21.7565 57.5309 21.6391 57.1986 21.6391V21.6391ZM57.7964 22.5149C57.6148 22.6124 57.4066 22.656 57.1986 22.6402C56.9898 22.6555 56.7808 22.6119 56.5981 22.5149C56.5166 22.4583 56.4522 22.3825 56.411 22.2951C56.3698 22.2077 56.3533 22.1116 56.3631 22.0163C56.3533 21.9206 56.3698 21.8242 56.411 21.7363C56.4522 21.6485 56.5166 21.5723 56.5981 21.5151C56.781 21.4185 56.9899 21.3754 57.1986 21.3911C57.4064 21.376 57.6142 21.4191 57.7964 21.5151C57.8772 21.5721 57.9411 21.648 57.9818 21.7353C58.0225 21.8227 58.0386 21.9186 58.0286 22.0137C58.0384 22.1091 58.0222 22.2053 57.9815 22.2931C57.9409 22.3808 57.8771 22.4572 57.7964 22.5149" fill="#939598"/>
<path d="M60.0437 22.6402C59.8268 22.6532 59.6119 22.5939 59.4362 22.4727C59.2332 22.3144 59.172 22.0677 59.172 21.8026C59.1648 21.6708 59.1924 21.5394 59.2524 21.4203C59.3124 21.3012 59.4028 21.1982 59.5154 21.1207C59.7338 21.0061 59.9823 20.9535 60.2313 20.969C60.419 20.969 60.6109 20.9809 60.8208 20.9967V21.2856C60.6414 21.2711 60.419 21.2592 60.2466 21.2592C59.7642 21.2592 59.5599 21.4333 59.5599 21.8026C59.5599 22.1719 59.7489 22.3487 60.1048 22.3487C60.3588 22.3408 60.6112 22.3085 60.8583 22.2524V22.5399C60.591 22.5994 60.3181 22.6334 60.0437 22.6415" fill="#939598"/>
<path d="M61.8823 21.6022C61.5931 21.6022 61.4819 21.6998 61.4653 21.8805H62.2994C62.2896 21.6879 62.1715 21.6022 61.8823 21.6022ZM61.8309 22.6402C61.6439 22.6562 61.457 22.6095 61.3026 22.5083C61.232 22.4456 61.1773 22.3685 61.1426 22.2828C61.1079 22.1971 61.0942 22.1051 61.1024 22.0137C61.0969 21.919 61.1153 21.8244 61.1559 21.7377C61.1965 21.651 61.2582 21.5747 61.336 21.5151C61.5003 21.4214 61.6911 21.3781 61.8823 21.3911C62.0709 21.38 62.2588 21.4213 62.4231 21.5098C62.6233 21.6417 62.64 21.8501 62.6427 22.0941H61.4569C61.4653 22.2748 61.5667 22.3909 61.9171 22.3909C62.1398 22.3862 62.3619 22.366 62.5816 22.3302V22.5624C62.3339 22.6069 62.0829 22.633 61.8309 22.6402Z" fill="#939598"/>
<path d="M64.1886 22.6072V21.9477C64.1886 21.7327 64.0732 21.6549 63.866 21.6549C63.694 21.6619 63.5234 21.6871 63.3572 21.7301V22.6019H63.0083V21.4149H63.2933L63.3058 21.4887C63.5227 21.4289 63.7461 21.393 63.9717 21.3819C64.1253 21.3706 64.2779 21.4138 64.3999 21.5032C64.4505 21.5514 64.4892 21.6097 64.5132 21.6738C64.5373 21.7378 64.546 21.8062 64.5389 21.8739V22.598L64.1886 22.6072Z" fill="#939598"/>
<path d="M65.5355 22.6402C65.4585 22.6473 65.3808 22.6355 65.3099 22.6059C65.239 22.5764 65.1773 22.53 65.1307 22.4714C65.0616 22.3637 65.0296 22.2383 65.0389 22.1126V21.6695H64.7871V21.4241H65.0389L65.0765 21.0654H65.3853V21.4241H65.8764V21.6695H65.3853V22.0493C65.3804 22.126 65.3922 22.2028 65.4201 22.2749C65.4412 22.3132 65.4744 22.3443 65.5151 22.3639C65.5557 22.3835 65.6017 22.3906 65.6468 22.3843C65.7304 22.383 65.8137 22.375 65.8958 22.3606V22.598C65.7774 22.6227 65.6568 22.6368 65.5355 22.6402" fill="#939598"/>
<path d="M66.2114 22.6074V21.4203H66.4897L66.5022 21.4942C66.7015 21.4304 66.9096 21.3944 67.1198 21.3873H67.1643V21.6696C67.124 21.6696 67.0781 21.6696 67.0433 21.6696C66.878 21.6701 66.7135 21.6905 66.5536 21.7303V22.6047L66.2114 22.6074Z" fill="#939598"/>
<path d="M68.4343 22.1101C68.2883 22.0982 68.1395 22.0916 67.9838 22.0916C67.7294 22.0916 67.6405 22.1404 67.6405 22.2512C67.6405 22.362 67.7155 22.4095 67.9102 22.4095C68.0869 22.4035 68.2626 22.38 68.4343 22.3396V22.1101ZM68.5079 22.6073L68.494 22.5401C68.2733 22.5994 68.0462 22.6344 67.817 22.6443C67.6846 22.6525 67.5527 22.6221 67.4389 22.5572C67.3928 22.5239 67.3561 22.4804 67.3319 22.4305C67.3076 22.3806 67.2966 22.3259 67.2999 22.271C67.2965 22.2018 67.316 22.1333 67.3556 22.0752C67.3952 22.017 67.453 21.972 67.5209 21.9465C67.6697 21.8946 67.8284 21.873 67.9866 21.8832C68.1173 21.8832 68.2938 21.8898 68.4398 21.8991V21.8806C68.4398 21.6959 68.3105 21.6353 67.9602 21.6353C67.8212 21.6353 67.6585 21.6419 67.5001 21.6564V21.4163C67.6766 21.4031 67.874 21.3939 68.0367 21.3939C68.237 21.3771 68.4381 21.4151 68.6164 21.5034C68.7554 21.5997 68.7874 21.7329 68.7874 21.9096V22.61L68.5079 22.6073Z" fill="#939598"/>
<path d="M69.2266 20.9244H69.5757V22.6074H69.2266V20.9244Z" fill="#939598"/>
</svg>
