<svg width="68" height="21" viewBox="0 0 68 21" fill="none" xmlns="http://www.w3.org/2000/svg">
<path fill-rule="evenodd" clip-rule="evenodd" d="M17.1176 20.2717H11.3071L6.94992 4.50035C6.74311 3.77486 6.304 3.1335 5.65807 2.83121C4.0461 2.07156 2.2698 1.467 0.332031 1.16208V0.554889H9.69227C10.9841 0.554889 11.953 1.467 12.1145 2.5263L14.3752 13.9027L20.1829 0.554889H25.8319L17.1176 20.2717ZM29.061 20.2717H23.5735L28.0921 0.554889H33.5796L29.061 20.2717ZM40.6761 6.01697C40.8376 4.95503 41.8065 4.34784 42.9369 4.34784C44.7131 4.19538 46.6481 4.50029 48.2629 5.25732L49.2318 1.01221C47.617 0.40501 45.8407 0.100098 44.2287 0.100098C38.9027 0.100098 35.0271 2.83116 35.0271 6.62153C35.0271 9.50506 37.7723 11.0191 39.7101 11.9312C41.8065 12.8407 42.6139 13.4479 42.4524 14.3574C42.4524 15.7216 40.8376 16.3288 39.2256 16.3288C37.2878 16.3288 35.3501 15.874 33.5766 15.1144L32.6077 19.3621C34.5455 20.1191 36.6419 20.4241 38.5797 20.4241C44.5517 20.5739 48.2629 17.8455 48.2629 13.7502C48.2629 8.59295 40.6761 8.29066 40.6761 6.01697ZM67.4725 20.2717L63.1153 0.554889H58.4352C57.4663 0.554889 56.4975 1.16208 56.1745 2.07156L48.1061 20.2717H53.7551L54.8826 17.3908H61.8235L62.4694 20.2717H67.4725ZM59.2421 5.86446L60.854 13.2954H56.3354L59.2421 5.86446Z" fill="#172B85"/>
</svg>
